<svg width="1512" height="982" viewBox="0 0 1512 982" fill="none" xmlns="http://www.w3.org/2000/svg">
<g clip-path="url(#clip0_123_438)">
<rect width="1512" height="982" fill="white"/>
<rect width="1512" height="982" fill="#F1BCEF"/>
<mask id="path-2-inside-1_123_438" fill="white">
<path d="M863.239 40.556L862.972 40L861.654 41.3863L861.088 47.1865L865.137 48.5332L865.878 52.1393L861.367 53.8489L861.5 52.6353L858.253 50.7952L851.862 53.7882L849.993 53.7965L848.033 57.1892L844.944 54.6174L844.432 55.5073L842.443 55.7769L840.275 57.0904L838.292 55.9718L833.333 60.1137L831.264 64.8526L828.222 66.6848L827.93 69.7529L826.138 71.4949L826.924 75.1689L828.329 75.4778L827.543 76.8598L827.648 78.9719L824.648 78.6935L823.038 80.1991L823.5 81.0375L821.877 80.9012L818.636 84.0286L816.778 84.8372L815.833 84.5322L811.935 90.0378L812.487 91.156L814.227 91.6814L816.978 96.4559L815.546 98.3063L813.147 98.8585L812.232 100.845L814.299 104.404L817.871 104.163L820.478 106.306L821.922 108.459L824.578 110.054L827.248 109.643L828.38 110.565L831.092 108.52L831.457 109.072L830.391 112.5L831.448 115.637L833.445 117.059L834.865 116.441L832.675 115.27L834.761 114.226L833.311 112.586L834.358 111.758L835.598 112.15L836.35 114.48L837.793 114.039L838.472 115.189L839.348 115.387L839.959 115.398L839.638 113.188L841.78 113.522L841.583 113.049L845.883 112.939L848.898 114.137L851.654 113.731L852.537 111.943L850.821 109.534L851.103 108.615L850.138 107.067L852.173 105.858L852.489 107.565L854.731 108.726L853.864 106.018L854.205 104.972L860.743 102.596L861.626 102.723L861.95 104.887L863.874 105.067L865.985 106.585L868.983 104.438L870.869 104.194L872.327 101.507L875.026 101.768L875.487 105.394L881.486 109.958L881.882 112.365L880.254 115.919L877.82 117.375L875.156 117.664L874.017 116.864L874.261 115.761L876.331 115.49L877.32 114.354L877.083 112.298L875.617 110.809L874.555 110.916L873.581 113.498L871.724 114.85L872.055 120.843L874.461 126.747L874.523 128.342L871.625 131.919L870.692 131.672L869.893 133.914L869.144 133.672L868.06 134.558L867.517 136.211L865.736 135.902L865.109 136.497L863.943 135.277L862.539 135.755L861.159 134.332L862.469 131.701L862.462 129.994L865.002 129.039L863.973 128.805L863.382 126.667L861.381 126.894L859.808 123.38L855.571 123.064L855.131 122.204L853.81 122.548L853.89 120.431L849.73 120.093L848.211 118.912L846.614 119.15L846.679 121.545L845.723 122.993L846.451 123.865L844.047 123.668L844.329 126.523L839.638 127.92L838.121 127.64L836.504 128.267L835.227 127.57L834.002 130.866L832.45 130.586L832.785 131.475L831.772 132.018L831.896 132.713L830.366 133.436L828.194 133.413L828.302 135.649L829.613 137.785L829.395 139.729L830.733 139.896L831.372 141.6L835.799 141.167L838.194 139.977L840.081 143.057L837.251 144.781L834.551 144.474L830.757 146.996L828.05 146.949L822.343 149.334L819.427 149.446L809.95 144.804L807.465 146.364L805.06 149.995L797.595 147.996L788.368 147.583L786.085 146.22L782.638 142.004L778.546 139.339L777.789 136.928L778.539 132.111L776.892 130.435L772.769 129.158L768.282 130.245L766.945 127.832L765.903 127.531L762.033 128.802L759.854 128.711L757.56 131.566L756.287 132.177L754.17 126.493L752.124 125.268L749.761 124.921L747.055 126.116L743.446 131.95L740.258 133.574L737.055 137.096L735.61 137.371L732.12 136.35L728.704 138.941L728.656 141.031L727.982 141.836L721.73 141.758L719.835 142.368L717.753 145.193L716.614 151.306L713.43 153.624L710.941 153.468L706.545 150.555L704.083 150.984L700.315 154.531L692.202 156.961L690.2 156.57L685.755 154.256L678.215 154.724L673.002 153.435L670.74 154.973L669.703 158.829L668.081 159.89L664.458 158.513L660.09 158.314L658.032 156.767L656.553 152.65L657.869 149.596L657.612 147.43L655.262 143.155L651.819 140.159L649.517 139.523L644.336 139.563L636.372 142.554L634.867 142.249L633.115 140.444L630.269 139.905L628.747 140.701L626.64 148.422L623.488 150.923L621.71 153.775L617.575 155.71L614.779 156.056L610.068 157.812L608.136 159.471L597.942 160.842L590.915 164.838L586.465 165.003L581.834 163.497L579.665 159.362L576.183 158.089L573.3 153.714L571.185 152.042L571.866 150.81L575.664 152.617L580.647 150.139L582.669 149.951L583.215 150.898L584.736 150.889L584.057 150.129L585.294 148.281L586.668 147.486L587.423 150.043L588.59 147.421L586.721 146.285L585.84 142.306L583.096 141.148L582.994 140.228L586.713 136.262L588.746 135.561L589.883 134.11L588.484 134.984L586.514 135.142L584.065 138.093L581.616 138.109L574.85 135.839L573.636 137.091L574.091 138.383L566.561 144.941L562.108 144.486L562.088 141.289L557.159 139.038L555.814 143.137L555.789 145.554L550.113 144.581L547.116 146.939L547.878 148.333L547.242 150.308L543.982 151.909L540.754 154.646L537.878 155.858L534.58 159.198L532.774 159.606L532.263 159.005L529.087 161.598L528.732 163.392L530.063 166.903L532.704 166.638L535.391 164.042L536.967 165.337L537.71 164.877L539.099 167.015L537.961 169.918L536.672 171.314L536.276 173.342L535.823 172.652L535.305 173.062L534.799 171.944L530.057 173.02L528.68 170.146L529.058 172.398L531.816 174.875L532.562 177.062L532.608 178.584L532.08 178.714L532.802 181.122L529.7 182.714L530.11 183.958L527.406 185.026L526.725 186.723L525.371 187.926L520.6 188.665L517.594 184.736L515.726 184.986L509.035 180.635L508.46 181.058L504.61 188.672L507.288 187.506L508.142 188.381L511.73 189.511L513.227 191.654L513.78 190.954L515.518 191.84L515.545 193.052L513.789 194.494L512.403 197.007L507.487 198.132L506.776 199.126L507.102 200.675L505.11 202.108L505.745 202.471L504.527 204.44L499.108 207.564L499.059 209.012L496.206 209.155L493.603 210.654L488.188 209.521L483.985 209.717L480.875 208.714L479.05 206.458L476.336 206.158L474.193 207.57L467.617 207.579L464.574 209.973L462.786 209.16L461.216 209.317L457.403 212.857L452.799 214.041L450.171 215.875L449.93 213.069L447.82 212.168L447.355 211.233L447.775 210.006L446.077 207.59L442.791 207.046L437.719 209.3L434.316 209.04L433.293 207.417L428.01 205.627L426.322 205.615L428.862 198.56L429.1 195.416L428.6 194.254L432.775 184.984L436.563 183.675L435.932 182.371L427.226 184.419L423.846 184.307L420.142 180.992L416.635 178.968L413.139 178.019L408.304 181.994L404.403 182.351L402.589 181.843L396.536 185.129L395.667 183.232L392.136 181.867L389.532 181.992L387.065 180.481L384.694 180.904L384.603 180.138L381.79 179.179L380.943 177.832L379.873 177.752L373.273 179.902L368.789 182.796L367.834 182.246L368.914 183.338L369.608 185.714L368.918 190.503L369.498 191.966L370.965 192.859L370.563 195.003L373.305 194.64L373.556 197.033L372.495 197.973L372.385 199.521L373.603 199.726L373.836 200.548L371.867 202.594L370.09 203.35L367.213 202.782L363.872 203.744L362.622 208.031L361.818 208.872L359.9 209.771L359.083 209.111L354.506 209.992L354.895 217.976L353.922 222.337L348.361 222.793L348.072 222.088L346.056 223.019L347.467 223.65L346.755 226.381L344.824 226.862L346.135 230.491L343.516 233.011L340.384 233.382L340.609 234.202L336.793 237.389L337.206 239.852L335.47 244.225L335.448 246.583L337.844 246.259L340.274 244.788L340.558 243.822L341.804 244.253L342.781 243.415L349.437 245.403L352.259 243.922L355.28 244.272L358.188 243.23L358.28 243.65L361.957 243.084L362.501 243.561L363.961 242.756L365.216 243.153L368.245 241.557L372.023 241.581L375.467 239.539L376.955 237.379L377.25 238.037L378.017 237.364L378.833 237.496L379.445 238.534L383.799 238.838L384.037 241.702L386.626 241.284L388.753 242.57L389.653 247.049L388.737 248.788L390.472 248.935L392.643 250.421L391.834 252.401L389.689 253.783L389.713 254.501L390.947 254.818L387.412 258.401L383.727 257.579L381.321 258.551L376.275 259.294L376.058 261.205L377.303 261.394L378.08 264.374L376.588 266.749L376.077 269.346L375.517 269.95L374.314 269.691L371.986 272.317L365.838 272.063L365.701 273.529L364.934 274.342L363.302 273.724L361.351 274.304L357.812 274.04L354.729 276.439L358.163 284.047L357.571 285.791L358.034 287.838L356.474 291.193L356.707 292.742L359.305 296.191L355.389 298.544L354.672 301.433L350.64 302.733L349.358 305.709L345.028 307.479L344.144 309.067L335.887 315.474L333.812 319.805L333.755 322.381L331.694 322.365L330.673 324.593L323.505 328.673L324.564 330.775L328.922 331.407L326.266 335.463L323.294 336.616L322.96 338.392L319.535 339.97L315.587 344.761L313.202 345.011L312.567 347.121L304.235 350.267L303.172 351.358L299.655 351.801L295.704 354.426L294.073 356.511L292.105 356.678L292.392 359.131L294.037 362.028L293.362 364.354L292.426 365.15L289.434 365.812L287.523 364.691L286.535 365.763L284.151 366.29L281.911 368.673L280.293 369.132L281.794 370.349L281.068 371.738L281.389 372.728L280.475 373.071L279.8 374.583L277.38 375.115L276.787 376.14L279.561 379.464L282.191 380.043L282.927 381.825L285.429 383.16L283.035 384.584L278.36 389.448L275.021 389.384L272.324 390.355L266.694 393.963L264.953 396.229L260.809 405.08L258.691 407.192L253.817 410.139L251.469 410.561L248.187 409.734L246.051 410.068L239.824 414.322L228.615 418.378L222.867 419.505L218.466 421.9L215.69 418.164L210.013 423.675L202.45 434.113L200.255 436.229L195.938 438.671L196.936 441.864L203.821 451.313L205.912 456.04L204.479 473.736L199.209 482.161L198.069 486.119L198.482 489.816L195.423 491.385L196.594 496.31L203.973 502.072L201.867 506.668L202.047 508.668L197.735 512.084L197.567 513.696L198.026 513.863L195.197 516.563L189.267 518.957L186.783 519.63L186.002 519.239L184.227 520.335L182.103 522.681L183.235 524.641L181.015 528.082L176.7 528.415L175.607 529.094L176.762 529.076L176.886 531.369L174.622 532.451L173.282 531.838L171.282 534.051L170.777 535.567L167.369 537.714L162.333 539.366L153.571 544.892L148.864 546.526L147.94 547.966L144.846 550.207L145.259 551.771L144.26 553.08L133.484 562.936L131.863 565.777L129.193 567.184L128.7 568.454L127.27 569.015L125.564 571.474L124.993 571.754L124.515 571.172L123.095 571.97L123.433 572.38L122.096 574.815L116.847 578.505L116.681 580.477L112.419 583.051L111.13 583.1L108.785 585.961L104.383 588.692L100.297 592.183L98.8391 594.863L95.2845 598.292L109.713 612.404L107.189 615.092L108.716 616.259L105.659 620.361L103.87 618.885L95.9504 628.596L91.0451 641.405L83.5144 648.59L83.7196 651.111L84.8016 652.146L84.0205 653.998L87.1365 656.746L87.7667 658.361L87.521 659.742L84.0692 663.666L83.8575 665.393L80.7229 670.819L91.273 674.151L93.788 678.51L94.7727 678.45L96.3299 679.684L96.068 678.273L102.852 683.365L107.53 688.431L109.123 687.932L109.83 688.339L110.546 687.46L111.109 689.623L112.597 690.966L113.857 693.615L111.215 696.41L110.272 698.226L110.037 700.945L108.736 702.189L108.099 702.089L107.447 704.208L103.859 706.01L104.334 706.459L103.639 707.401L104.269 708.426L103.335 709.016L103.289 710.662L102.601 710.848L99.9028 714.812L100.179 715.495L99.5449 716.525L98.2059 717.868L98.0079 720.006L98.5001 720.474L97.8766 722.291L98.8204 723.963L97.8113 725.415L98.1473 726.136L96.41 725.956L92.7597 730.386L93.6013 731.283L93.0332 733.229L96.2347 735.999L95.1055 736.896L96.8318 738.995L98.2854 739.582L97.6618 740.125L99.0526 742.513L98.5198 744.155L99.6531 745.044L98.5063 747.118L94.7707 750.809L94.1539 750.22L92.4662 751.817L88.2821 747.521L83.7464 749.068L83.5867 750.139L81.794 749.943L80.5632 748.122L78.2334 749.999L75.1795 754.65L71.2877 751.407L68.7397 753.82L65.909 754.383L65.5426 755.081L64.8226 754.807L64.9427 755.711L63.762 755.737L63.8201 756.519L62.8279 756.849L63.0209 758.055L61.2561 759.587L58.5714 758.472L57.7101 759.035L58.7609 760.766L58.5184 761.979L54.2692 761.059L52.4529 762.661L51.171 765.874L52.4754 767.71L50.0405 769.089L49.4446 770.233L55.4076 773.059L55.7187 773.92L57.7446 774.403L59.1859 777.106L57.7795 779.028L58.193 779.371L57.0384 782.121L55.8099 780.807L55.132 781.014L54.5586 784.157L49.6219 793.906L50.2345 797.023L47 799.53L47.295 801.161L48.6254 800.234L49.9046 800.74L51.2402 799.674L52.3304 799.862L53.5005 799.168L55.1303 797.241L55.6221 794.711L56.7112 794.902L58.9326 793.995L61.784 795.261L65.4649 794.672L68.2419 795.893L69.6631 795.868L70.6637 796.339L70.5999 796.979L71.0867 796.651L71.8315 798.634L73.0509 796.229L74.0446 795.426L74.8568 796.081L75.649 795.068L75.9324 792.841L77.1012 790.926L84.177 792.059L89.4552 790.652L91.5427 794.335L98.3106 794.817L100.806 795.922L103.396 795.346L105.1 792.792L106.033 793.823L107.208 791.494L113.432 788.288L115.199 787.997L118.757 785.124L119.745 784.108L118.952 780.029L119.208 777.775L121.683 776.034L122.58 776.398L124.872 772.609L127.084 772.145L128.971 769.472L130.198 769.345L130.104 768.575L132.044 767.767L133.876 765.966L136.692 766.836L137.355 766.626L137.235 765.744L138.73 766.616L140.151 764.689L143.96 762.725L147.296 761.843L152.827 757.478L157.701 748.949L157.432 746.184L156.268 745.599L157.536 743.398L155.135 744.078L152.932 743.473L152.591 741.901L153.425 740.201L152.883 739.606L149.322 743.513L149.882 744.003L147.777 745.104L147.836 745.646L144.113 747.264L142.041 745.458L142.516 744.152L138.823 740.692L136.643 735.863L134.991 733.733L135.122 731.661L135.713 731.683L136.297 730.343L138.523 729.694L139.797 727.9L138.426 726.165L138.919 725.181L138.328 725.14L138.654 724.06L137.924 723.554L138.565 722.702L129.358 718.176L139.798 696.181L165.485 676.562L193.734 671.083L222.937 652.703L273.777 653.625L317.26 665.94L311.28 683.279L311.291 684.662L312.682 685.967L312.374 688.028L310.312 689.894L308.389 692.934L304.652 693.412L301.758 695.908L301.625 699.196L301.959 700.782L304.144 703.339L305.842 706.87L305.778 708.696L309.551 708.606L310.364 710.385L309.872 711.477L310.794 714.479L312.876 714.159L315.583 716.37L316.866 716.507L320.136 720.784L319.457 722.426L320.037 723.481L321.541 723.652L323.061 725.785L324.396 726.147L325.475 728.149L327.657 726.95L328.729 727.505L330.963 732.535L329.078 735.398L329.479 738.864L327.688 742.006L327.988 743.86L326.916 745.248L323.11 747.025L322.284 750.388L320.253 753.292L317.303 754.233L317.422 758.4L313.764 762.607L312.945 765.291L311.786 766.788L314.613 777.24L312.852 778.61L312.403 781.227L308.091 785.674L308.381 787.126L307.638 789.716L308.993 792.628L309.597 796.664L310.333 798.015L312.936 797.643L315.4 800.93L316.509 800.099L322.608 799.261L323.804 799.701L324.535 801.344L326.842 802.144L332.392 802.8L333.682 802.431L336.428 803.824L339.015 802.607L341.896 803.371L339.77 808.023L340.399 810.499L337.366 815.662L336.362 816.384L339.383 820.932L338.212 823.664L339.354 826.092L338.085 826.314L335.758 828.112L333.084 836.328L334.229 836.973L335.178 838.611L339.19 840.16L339.344 838.786L340.291 837.711L344.926 836.508L345.3 835.126L349.597 829.942L352.534 829.603L353.574 830.378L352.865 834.147L355.639 836.573L357.579 836.128L358.948 840.622L361.561 845.717L362.698 845.392L364.101 847.939L367.319 850.638L368.463 857.421L373.335 859.993L374.833 858.94L376.447 860.705L376.968 865.28L379.37 866.799L380.533 869L379.863 870.213L376.324 871.638L375.806 873.541L378.598 877.441L384.849 879.956L385.2 884.197L384.315 887.465L386.479 891.373L386.816 894.327L389.739 897.752L392.074 898.755L393.296 900.619L393.21 904.787L395.499 906.645L397.084 907.006L397.028 909.22L398.172 911.558L402.965 915.76L401.919 917.482L403.26 919.243L403.587 921.831L404.748 923.276L407.143 923.771L410.156 923.202L411.58 921.455L414.476 919.577L415.386 917.206L421.117 914.224L423.22 914.492L424.43 915.331L424.45 916.775L423.632 917.679L427.921 921.633L429.062 921.287L430.765 922.931L432.694 923.547L434.533 922.831L435.883 921.553L434.893 918.271L435.666 915.919L436.726 915.533L437.524 913.812L438.713 913.63L440.534 912.131L440.747 909.898L443.694 909.467L444.473 908.449L448.073 909.374L451.088 907.934L452.215 910.032L453.383 910.19L457.957 904.837L459.648 904.49L462.268 897.72L465.129 894.935L467.436 897.05L471.959 897.335L472.518 899.546L474.334 900.196L476.465 900.057L480.707 897.917L482.654 899.571L484.505 900L484.503 901.56L485.989 903.325L487.506 902.948L489.999 904.708L490.521 904.48L492.603 906.43L493.836 906.116L497.198 902.665L497.426 900.995L498.653 899.606L499.828 900.705L501.49 900.908L504.645 899.308L505.069 898.167L506.583 897.821L508.863 895.641L511.966 890.503L515.726 890.133L516.45 888.726L519.833 889.509L521.448 888.584L520.403 883.436L522.367 881.136L525.421 879.532L527.294 879.587L529.089 876.538L531.696 878.555L534.985 876.414L535.447 877.493L538.083 879.223L540.421 879.056L541.349 879.924L542.687 879.01L543.894 876.258L542.3 870.308L543.618 866.864L545.004 865.6L548.71 865.993L550.733 865.076L553.898 865.846L555.044 869.532L554.865 871.119L557.03 872.873L563.814 873.399L566.698 872.025L572.932 873.051L576.058 871.274L577.358 871.162L578.386 870.128L580.659 870.538L581.907 871.372L582.622 873.152L584.651 875.332L585.047 878.161L585.888 878.993L588.801 880.126L591.451 880.127L594.905 883.028L594.106 889.01L595.341 889.91L595.778 892.031L596.921 892.255L598.216 894.042L602.781 893.96L603.337 891.999L606.135 889.018L606.735 886.24L613.457 888.003L615.735 890.745L620.187 893.517L621.177 895.76L622.906 897.062L624.74 896.137L626.15 894.379L629.856 892.606L632.88 893.511L634.527 894.978L641.331 895.366L643.073 897.232L643.779 895.953L645.883 895.549L647.126 892.499L644.426 888.186L645.04 883.36L647.151 882.596L647.702 880.225L646.468 878.508L647.372 878.028L647.289 876.997L648.613 875.817L648.519 874.1L647.288 872.518L647.243 871.353L652.373 869.189L653.133 867.016L655.536 864.455L657.006 860.895L660.225 861.368L662.909 860.793L664.489 861.33L669.755 860.592L672.205 861.287L678.383 859.755L682.124 861.351L683.639 859.565L685.871 853.974L689.41 854.083L689.671 852.319L688.893 850.964L690.999 848.312L689.247 845.364L692.421 841.85L696.595 839.548L692.99 830.966L693.206 828.899L692.299 828.074L692.571 825.653L694.622 822.837L694.774 818.904L696.123 816.344L696.392 813.813L698.983 814.226L700.879 813.161L702.498 813.605L707.155 811.475L711.084 811.722L715.878 810.382L716.729 809.212L719.342 808.922L719.841 807.394L721.083 806.289L721.586 800.441L724.638 798.208L730.637 797.505L732.39 795.757L734.059 792.608L733.388 792.224L733.363 789.739L732.309 788.391L732.352 785.868L732.729 784.62L734.17 783.382L735.07 780.63L737.164 779.338L737.234 776.93L733.419 772.908L732.824 767.598L730.367 763.622L728.915 757.027L725.304 756.063L724.353 755.453L723.168 752.549L721.558 752.562L720.368 750.232L719.943 746.443L717.276 746.46L717.192 745.126L712.941 744.514L711.339 743.256L710.652 741.402L712.415 740.73L712.375 738.689L716.926 735.479L718.475 732.784L721.007 732.106L722.491 729.899L723.286 727.244L724.63 726.045L725.784 725.939L728.505 722.761L731.453 722.865L735.957 725.427L741.416 724.744L746.271 722.001L747.618 722.541L751.761 719.357L751.52 717.857L752.671 716.207L752.586 714.651L755.84 711.593L755.198 711.473L755.356 710.418L754.76 709.855L755.825 708.67L755.504 707.951L759.074 705.27L760.946 705.62L763.641 705.092L764.547 702.516L767.652 702.731L766.728 701.51L768.588 700.068L768.324 697.682L766.983 696.157L767.929 694.549L770.835 693.263L774.336 694.727L776.058 692.231L777.73 691.627L779.25 689.994L783.276 688.638L783.915 685.52L785.101 684.533L783.668 682.857L784.648 680.965L784.161 678.715L782.268 676.422L781.309 677.328L780.354 677.135L775.789 674.571L778.918 671.79L778.902 670.344L781.586 666.531L783.92 667.537L787.193 666.593L795.635 659.375L796.665 656.964L800.155 654.717L802.767 654.172L803.925 655.224L807.12 654.332L808.284 654.874L809.22 653.522L811.181 653.439L813.113 651.629L815.826 651.617L821.062 649.345L822.52 649.11L822.77 649.873L824.766 649.373L826.107 650.221L827.087 651.888L826.977 653.163L829.848 655.268L829.974 657.792L831.084 658.142L830.47 660.482L828.456 662.494L829.464 665.377L828.249 667.742L828.861 669.417L830.172 670.127L831.824 672.924L830.181 676.04L832.717 680.093L829.488 684.284L831.261 687.284L831.355 692.603L832.424 695.216L830.686 697.128L829.714 699.428L830.644 702.157L830.254 706.879L830.9 708.262L829.357 710.688L827.87 711.213L827.304 713.926L824.142 714.727L823.42 716.477L823.539 718.968L822.704 719.913L823.146 721.695L820.799 722.56L819.149 724.331L821.103 727.269L821.825 730.057L826.031 735.197L827.94 739.986L825.632 741.055L825.444 742.585L823.69 744.338L824.393 746.728L830.509 748.688L831.275 752.809L832.425 754.23L839.342 755.689L846.45 759.742L848.496 758.975L851.856 760.592L853.093 766.943L854.365 769.868L858.463 772.487L858.604 775.156L861.619 776.152L863.541 779.344L864.727 785.049L866.156 786.25L868.057 785.702L868.935 786.256L869.571 787.468L869.247 788.557L873.952 789.118L874.126 789.902L873.013 790.04L872.955 791.715L870.791 793.354L870.688 794.769L871.656 794.902L875.991 799.292L876.657 804.377L887.822 803.548L890.549 806.976L890.986 808.442L894.911 810.189L897.795 809.488L898.529 811.711L899.906 813.257L903.127 813.279L908.568 815.447L911.778 809.566L917.425 804.082L922.946 813.481L925.516 813.853L930.136 816.833L935.367 816.594L937.322 813.614L940.212 815.409L945.984 821.963L948.69 823.29L950.278 825.181L951.714 825.232L952.488 831.6L949.238 837.527L946.223 836.231L944.334 838.421L946.514 839.663L945.654 841.127L944.817 840.654L943.916 844.883L941.582 847.957L937.283 849.57L933.277 855.836L931.026 864.457L932.57 864.679L933.069 863.182L934.115 863.102L938.628 864.122L939.756 863.598L941.727 865.212L945.22 864.938L946.181 866.266L947.691 866.658L947.963 867.818L948.773 867.904L949.002 869.654L950.94 871.8L954.395 874.864L955.657 875.16L956.771 877.353L959.867 879.155L964.692 878.095L965.626 880.011L966.235 883.86L964.642 887.88L964.585 890.692L968.999 896.761L971.136 896.756L974.21 902.268L974.463 904.435L973.401 906.74L974.219 908.347L975.207 908.58L976.53 911.251L977.224 918.266L978.24 919.638L979.812 918.262L980.825 919.786L976.837 922.513L971.117 931.002L970.468 936.342L973.07 934.642L975.743 935.014L976.974 932.46L978.884 931.435L981.919 930.455L983.278 930.961L984.242 930.479L984.223 931.289L986.046 932.451L985.872 933.656L988.535 935.477L989.854 935.166L990.468 933.537L992.182 933.943L993.747 932.682L995.101 933.838L994.753 934.131L997.126 934.303L995.958 940.158L997.422 939.753L999.237 940.965L1003.33 942L1004.82 940.23L1007.72 940.693L1008.68 939.708L1007.57 938.95L1009.74 934.066L1009.07 931.551L1009.99 931.092L1010.6 929.07L1011.6 929.025L1012.09 927.664L1013.77 926.478L1012.98 926.038L1014.1 925.472L1013.27 921.766L1014 919.673L1014.69 919.327L1015.03 916.808L1015.94 916.052L1018.65 915.975L1020.22 913.097L1022.23 911.59L1022.73 909.963L1022.04 909.13L1022.26 908.435L1023.41 908.54L1024.51 906.652L1025.65 906.229L1025.23 905.135L1025.71 904.526L1025.04 903.823L1021.94 905.14L1021.83 899.649L1020.6 899.006L1019.09 900.004L1019.21 898.972L1016.36 897.353L1016.62 895.334L1013.24 895.569L1013.35 894.817L1011.25 892.36L1007.23 892.812L1006.2 891.818L1003.96 891.967L1004.93 887.99L1004.09 886.831L1002.15 886.012L1001.72 884.982L1003.26 882.614L1002.27 877.385L996.045 874.665L994.473 872.947L994.311 871.818L994.942 872.545L996.606 871.817L996.441 868.349L1000.21 868.434L1001.4 867.132L1001.46 864.988L1002.04 864.602L1003.56 865.102L1004.94 864.246L1005.06 862.79L1006.8 862.396L1005.57 859.162L1004.95 851.869L1000.74 847.344L1000.28 846.004L1000.89 842.61L1003.19 839.977L1003.29 836.97L1004.99 835.629L1006.9 835.482L1010.21 832.797L1011.9 832.784L1013.6 831.247L1016.78 832.019L1022.01 830.449L1022.61 825.106L1024.21 823.826L1025.91 820.076L1020.56 805.989L1026.02 802.602L1029.08 802.089L1030.62 799.707L1032.96 798.465L1035.86 798.419L1037.55 793.878L1039.92 790.034L1041.89 789.29L1044.62 786.771L1046.8 786.043L1048.27 782.144L1051 781.631L1054.4 782.857L1055.21 782.383L1056.49 780.229L1058.71 778.302L1058.75 776.148L1059.76 774.775L1058.97 773.8L1058.77 771.766L1059.68 770.621L1061.07 765.066L1062.52 764.157L1064.85 763.991L1066.29 762.337L1066.63 759.42L1067.55 758.019L1066.94 755.688L1071.25 753.772L1074.71 754.299L1075.51 753.574L1075.92 748.685L1075.44 747.428L1076.44 745.76L1075.69 743.555L1076.98 740.79L1076.15 738.737L1078.19 737.44L1078.91 735.817L1078.76 733.311L1081.73 731.64L1082.82 728.424L1086.9 724.899L1085.87 719.321L1086.96 717.022L1090.09 715.516L1090.16 713.024L1091.42 711.081L1089.73 709.486L1089.16 707.157L1091.58 703.803L1090.4 701.309L1090.92 700.057L1090.47 698.373L1086.18 697.258L1084.99 693.394L1084.15 692.852L1084.48 691.021L1083.85 690.147L1084.66 689.589L1084.8 687.67L1085.51 687.44L1086.74 685.005L1084.87 682.988L1084.08 680.56L1086.01 677.531L1085.03 676.71L1086.17 675.999L1085.46 671.828L1084.44 671.448L1083.93 669.401L1081.87 669.638L1080.26 668.956L1079.64 667.235L1075.44 663.187L1075.07 657.041L1076.72 655.87L1081.09 654.965L1084.81 650.286L1083.7 649.684L1083.33 648.333L1084.56 642.355L1083.57 640.321L1084.98 638.594L1085.02 636.738L1086.44 634.283L1088.67 634.188L1093.21 632.494L1095.1 631.059L1103.21 630.211L1103.83 631.207L1107.41 630.455L1108.81 630.997L1109.87 629.574L1111.52 628.712L1112.97 630.603L1114.54 631.144L1114.5 633.218L1113.4 633.982L1113.02 635.607L1115.48 639.881L1118.25 640.913L1119.67 645.126L1121 645.361L1122.14 646.659L1126.5 647.919L1130.4 643.749L1130.39 641.05L1131.07 639.396L1130.58 638.03L1133.54 633.879L1140.07 630.519L1141.15 629.146L1142.72 628.91L1142.96 629.403L1141.94 630.444L1142.45 633.823L1141.93 639.798L1138.2 640.01L1138.39 642.003L1142.5 641.769L1143.35 646.752L1143.08 648.049L1141.35 649.658L1141.82 659.093L1140.69 661.698L1140.99 662.966L1139.87 668.83L1140.31 670.873L1142.14 672.903L1143.73 678.992L1143.63 681.942L1144.42 683.397L1143.16 685.616L1141.97 685.76L1142.6 687.217L1141.94 689.127L1146.56 691.564L1147.68 691.328L1148.78 693.117L1152.98 694.413L1154.25 698.154L1156.78 700.27L1157.69 706.975L1158.41 707.46L1158.55 708.906L1159.32 708.787L1159.88 711.282L1164.48 717.811L1169.59 722.502L1171.35 720.732L1172.89 720.768L1173.58 722.396L1176.95 723.923L1178.52 725.625L1180.17 726.122L1182.18 725.791L1183.04 726.482L1185.07 725.473L1188.58 726.018L1191.18 729.287L1193.24 728.95L1196.27 729.851L1198.55 729.497L1200.9 728.225L1201.05 727.153L1204.74 725.078L1206.88 725.361L1207.36 723.593L1209.38 722.145L1210.72 723.64L1210.82 724.909L1212.64 726.314L1214.56 726.371L1217.21 727.718L1219.62 727.228L1221.11 726.768L1222.25 720.717L1224.21 719.092L1224.7 717.44L1224.67 714.644L1222.23 713.777L1222 712.905L1222.38 711.523L1225.17 708.749L1223.75 705.095L1228.11 700.488L1228.85 700.944L1230.17 700.088L1231.38 701.921L1234.57 703.387L1236.93 706.603L1240.83 707.735L1243.05 705.071L1248.52 703.673L1250.75 701.599L1252.57 700.822L1253.54 701.05L1256.77 698.179L1258.02 695.931L1259.54 695.917L1260.37 695.236L1262.1 695.58L1263.17 694.388L1265.36 695.13L1265.67 694.526L1266.54 694.834L1267.05 694.317L1267.39 694.831L1268.27 694.267L1269.12 695.302L1272.99 692.586L1273.95 690.296L1278.59 688.787L1281.18 686.911L1282.09 687.503L1284.33 691.69L1285.15 691.142L1286.22 691.551L1286.92 693.66L1288.77 692.746L1288.42 691.124L1289.82 689.671L1295.55 687.62L1297.16 687.789L1297.52 688.091L1296.46 690.201L1299.21 694.666L1305.64 700.159L1308.36 699.8L1309.16 700.386L1308.6 702.42L1309.03 704.428L1305.75 708.118L1305.37 710.602L1304.03 713.081L1308.63 717.27L1310.31 717.585L1310.21 719.103L1309.12 720.247L1310.54 721.857L1310.53 722.855L1309.07 724.762L1307.71 725.258L1309.02 730.393L1313.07 732.318L1320.05 733.968L1323.91 737.122L1327.64 739.043L1328.41 742.496L1327.82 743.065L1328.65 743.619L1329.24 747.007L1328.13 747.664L1328.12 748.912L1326.97 750.181L1327.07 752.642L1323.97 755.41L1328.6 757.56L1330 759.725L1332.42 761.104L1335.62 757.343L1337.93 756.277L1342.62 755.93L1344.39 757.222L1347.45 757.382L1348.8 758.098L1350.47 757.279L1351.62 757.604L1355.88 755.063L1357.42 750.913L1364.94 744.129L1365.43 742.469L1364.02 738.692L1361.32 736.497L1361.35 735.013L1360.68 734.051L1361.05 731.573L1358.55 730.193L1359.22 728.419L1358.48 726.831L1355.78 725.582L1353.69 723.757L1353.66 721.46L1346.72 717.18L1345.59 713.006L1342.9 708.325L1343.39 704.449L1344.41 702.698L1344.17 699.849L1345.63 699.757L1347.44 697.65L1350.62 695.972L1349.65 691.921L1350.42 689.946L1350.08 688.485L1354.82 684.488L1356.39 684.171L1358.95 685.083L1360.88 683.938L1361.52 682.467L1360.93 676.328L1362.37 674.805L1360.62 671.273L1359.4 671.045L1356.95 672.436L1356.42 671.8L1356.27 667.742L1355.36 667.148L1354.96 665.411L1351.81 665.062L1350.62 663.857L1347.53 665.002L1346.91 666.449L1344 665.428L1343.59 666.606L1342.3 667.048L1341.76 668.573L1338.63 667.984L1335.33 668.691L1335.34 666.644L1334.39 665.472L1330.4 666.523L1329.5 665.814L1328.41 663.736L1328.49 660.91L1327.87 659.726L1326.72 660.256L1323.38 658.822L1322.52 656.956L1323.56 656.044L1323.36 654.578L1324.03 653.288L1324.95 652.934L1324.84 652.191L1326.69 650.873L1327.3 648.945L1326.38 647.543L1326.37 645.523L1323.83 642.884L1323.67 641.979L1325.44 638.453L1324.43 637.328L1324.29 636.016L1325.62 633.114L1324.38 631.997L1323.49 628.378L1324.92 628.153L1326.39 626.879L1327.16 622.66L1326.04 619.805L1327.01 618.571L1324.54 616.784L1324 614.593L1324.9 612.972L1329.47 612.22L1330.01 610.969L1331.75 609.737L1332.69 606.18L1336.01 604.159L1336.97 602.516L1335.2 600.616L1334.87 598.889L1340.18 597.879L1341.74 595.445L1341.89 592.511L1340.6 590.568L1340.79 588.624L1341.93 587.155L1341.17 584.958L1342.26 582.75L1343.61 582.77L1345.67 584.382L1350.16 585.303L1352.88 584.172L1353.2 582.748L1355.15 582.761L1357.57 581.009L1361.03 580.499L1367.48 576.754L1370.51 575.863L1370.7 577.131L1374.76 578.205L1377.55 579.939L1380.3 574.415L1385.04 571.595L1385.63 575.359L1386.76 577.57L1391.22 582.986L1387.88 587.314L1385.84 591.422L1387.16 598.941L1389.68 600.646L1392.7 597.971L1394.42 597.724L1396.73 600.038L1400.07 601.03L1400.72 603.638L1402.75 606.25L1402.91 608.047L1402.26 609.389L1402.78 610.285L1406.55 610.533L1407.57 611.774L1409.8 611.078L1411.96 609.488L1413.55 610.533L1415.93 613.569L1419.69 610.534L1420.21 607.609L1423.96 607.777L1427.62 609.083L1428.78 610.283L1430.33 610.253L1434.32 613.029L1438.06 610.602L1440.94 609.679L1445.74 614.207L1446.7 615.987L1451.74 619.027L1453.54 616.368L1453.71 614.207L1457.57 613.582L1457.45 611.005L1459.58 606.913L1458.38 604.512L1458.57 602.716L1460.4 599.037L1461.73 597.794L1461.29 596.256L1462.66 592.347L1461.41 591.17L1462.53 588.353L1461.62 585.313L1463.71 582.597L1464 580.643L1462.96 580.753L1461.56 579.721L1454.79 572.638L1449.63 568.913L1448.81 569.771L1441.55 570.255L1438.09 571.729L1435.96 570.934L1435.2 570.131L1435.79 569.168L1435.37 566.878L1434.15 565.183L1434.06 563.627L1432.74 562.601L1432.42 560.882L1432.98 559.553L1432.4 556.75L1432.9 555.171L1430.67 550.416L1429.56 549.412L1430.11 548.063L1431.38 548.169L1433.2 547.147L1436.28 539.807L1438.37 539.818L1440.25 538.212L1440.03 536.758L1440.88 535.722L1441.1 533.629L1439.76 532.979L1438.17 530.758L1438.06 529.519L1435.29 527.486L1435.5 526.963L1438.87 524.88L1439.28 523.816L1446.34 518.43L1448.27 518.717L1448.57 517.886L1448.99 514.035L1447.89 508.762L1445.99 506.847L1445.77 505.176L1442.34 502.312L1443.56 501.785L1443.59 499.596L1444.47 498.444L1447.42 498.054L1450.1 496.634L1453.26 489.712L1452.67 487.104L1454.12 485.864L1452.92 483.304L1454.01 481.243L1454.94 481.539L1456.02 480.735L1456 479.148L1455.19 478.316L1456.72 475.38L1457.68 474.915L1456.49 468.84L1457.5 463.924L1456.87 460.234L1455.45 458.795L1458.7 454.258L1458.73 451.155L1459.52 450.106L1459.78 446.87L1462.17 444.665L1461.88 443.23L1462.83 439.76L1461.89 437.42L1463.15 434.547L1459.04 433.076L1456.74 430.328L1453.02 428.625L1452.57 427.707L1450.6 427.963L1447.6 427.139L1446.95 426.341L1444.48 426.301L1443.48 425.695L1442.12 424.128L1442.41 421.953L1443.7 419.419L1443.55 417.374L1441.64 415.424L1439.15 414.219L1435.92 410.499L1434.71 407.651L1431.9 406.118L1430.44 406.367L1426.51 410.583L1421.18 409.816L1418.53 411.073L1417.99 414.028L1416.5 414.826L1416.72 416.154L1414.79 418.808L1413.22 422.546L1412.7 427.211L1411.67 428.024L1406.93 428.921L1406.37 430.613L1406.69 431.983L1405.92 433.407L1409.37 437.643L1409.02 440.26L1404.25 440.497L1403.03 442.629L1401.2 441.129L1393.66 438.605L1385.45 437.454L1385.89 443.137L1384.34 444.554L1383.17 450.926L1380.8 453.51L1381.39 456.108L1383.65 458.611L1382.75 462.64L1383 464.854L1382.4 465.52L1382.97 466.944L1378.78 466.495L1373.96 467.705L1372.46 466.793L1370.79 466.876L1370.02 468.444L1367.61 470.246L1367.15 471.83L1363.95 472.667L1363.1 474.028L1361.11 473.879L1359.46 475.297L1358.58 474.182L1356.24 473.689L1353.84 475.515L1348.74 475.014L1347.76 475.515L1347.5 476.969L1343.23 478.471L1341.69 476.036L1339.02 473.681L1339.24 470.68L1337.6 469.255L1336.49 469.704L1333.7 468.916L1328.9 469.445L1326.29 468.009L1326.52 462.208L1323.55 460.533L1322.57 458.101L1320.34 457.109L1318.56 453.57L1316.5 452.223L1315.86 450.937L1312.14 452.213L1309.48 450.747L1307.2 450.578L1306.17 449.165L1304.81 448.861L1304.6 446.268L1303.38 444.472L1299.85 446.131L1298.77 446.052L1297.51 444.408L1293.46 446.073L1290.68 445.638L1285.78 443.139L1282.9 439.863L1281.03 440.205L1279.06 439.282L1277.33 437.33L1274.18 436.707L1273.03 435.802L1271.6 435.978L1273.03 433.493L1271.74 433.223L1271.8 430.089L1271.21 428.835L1271.93 428.284L1272.41 425.809L1269.91 423.026L1271.43 421.083L1271.46 418.293L1274.23 415.033L1273.77 413.936L1274.31 412.94L1276.65 410.723L1275.78 409.001L1275.55 406.025L1270.7 403.477L1269.9 401.98L1270.04 400.437L1272.92 398.549L1271.63 396.735L1268.8 396.691L1266.48 395.836L1265.61 397.834L1264.29 398.916L1260.63 399.503L1259.73 400.486L1260.23 400.62L1259.1 400.675L1258.29 399.775L1257.42 399.865L1255.17 397.355L1250.18 395.677L1248.25 393.173L1245.28 391.995L1243.1 388.914L1238.18 388.676L1236.28 389.419L1231.6 389.622L1230.71 387.743L1229.65 387.016L1222.27 386.699L1218.77 384.582L1218.35 383.538L1219.26 382.943L1218.95 381.971L1215.82 382.615L1212.89 381.329L1210.99 379.689L1210.91 378.215L1203.53 379.989L1199.42 379.267L1198.25 381.92L1195.55 383.129L1190.71 382.054L1186.43 378.362L1185.27 379.632L1182.74 380.454L1179.77 382.472L1176.88 382.445L1172.51 384.409L1171.13 383.56L1170.23 379.69L1166.52 376.833L1159.27 379.125L1157.87 380.607L1154.1 380.467L1153.96 381.814L1151.39 380.864L1149.65 384.109L1148.45 382.546L1148.57 380.924L1146.88 381.611L1146.54 382.903L1145.29 378.478L1145.47 376.887L1151.69 372.892L1158.33 367.549L1160.14 362.6L1159.99 358.545L1157.8 346.53L1156.35 341.833L1154.02 338.485L1151.39 332.503L1149.68 324.133L1150.9 317.313L1153.98 310.612L1154.62 306.582L1160.49 295.802L1163.51 287.406L1163.77 283.546L1168.52 279.465L1171.73 271.155L1179.59 265.351L1181.64 262.522L1185.17 249.962L1187.14 246.908L1192.98 240.435L1193.55 240.917L1196.39 239.88L1201.13 239.802L1204.21 238.629L1207.4 235.156L1208.41 232.401L1207.97 228.437L1204.11 226.206L1202.32 223.1L1201.46 222.997L1201.05 215.542L1199.2 209.628L1199.9 207.117L1203.45 203.438L1203.76 201.438L1199.61 199.873L1192.33 199.056L1188.2 193.136L1187.41 193.458L1186.29 196.961L1183.8 196.378L1179.68 187.451L1174.61 183.197L1173.47 181.456L1172.44 160.793L1152.73 156.46L1121.21 125.251L1078.06 107.858L1065.02 109.495L1056.36 108.428L1052.88 109.998L1052.73 109.188L1051.11 109.556L1047.22 104.661L1045.01 103.81L1041.4 105.384L1034.77 103.329L1030.5 99.9641L1027.34 98.4715L1021.62 98.8354L1005.21 95.1043L1002.55 95.8006L994.811 100.348L991.709 101.151L990.055 103.202L981.062 107.5L979.643 108.959L974.966 109.464L967.23 112.467L964.751 112.559L961.535 110.018L958.989 109.562L959.231 107.072L958.496 102.97L956.643 100.073L954.359 98.0709L951.231 97.6784L951.396 95.6776L953.04 94.0884L953.465 92.4782L952.536 91.6416L951.308 91.5686L951.534 90.2259L952.563 90.4877L953.579 89.7175L954.373 90.8418L955.186 89.8595L956.148 90.7862L955.203 92.5884L956.279 91.8866L958.365 91.8811L959.223 90.5742L957.206 88.3007L958.158 87.3L956.241 86.6666L950.537 87.6199L949.732 84.092L948.925 83.6385L945.929 82.5497L944.835 83.7675L943.411 84.1617L941.387 83.3569L943.637 81.051L941.225 81.1504L939.405 78.3771L936.938 78.0363L939.24 75.3602L938.105 75.0031L937.521 71.8008L934.363 73.4902L935.186 76.8577L932.88 76.0971L931.253 77.2124L930.7 76.7537L929.43 79.3301L928.037 78.849L928.36 79.6951L927.563 80.5045L925.989 80.7864L926.161 82.3351L926.96 83.1538L925.859 86.0446L933.551 87.2254L934.684 87.8555L934.687 90.4114L937.415 90.7272L938.595 92.1586L937.36 92.9586L935.469 92.8398L933.415 98.1626L934.204 100.323L931.87 100.258L922.247 93.9607L912.952 92.4267L912.477 90.6811L912.858 88.9478L914.256 83.8174L915.54 81.7477L914.515 80.7606L911.911 80.0162L911.953 79.5028L909.803 79.3493L907.683 75.4893L908.761 71.6613L910.519 70.5679L911.578 68.4606L916.548 68.0664L917.142 67.3115L917.048 65.5895L913.244 62.8819L913.821 62.1348L912.734 60.9298L908.593 59.5105L904.656 61.5644L902.677 63.901L900.67 62.7005L899.071 57.1544L900.645 55.8307L898.953 54.1161L898.273 49.9009L896.776 50.2826L894.071 49.4067L892.427 47.565L890.896 47.5722L891.8 45.4982L890.722 43.6313L888.455 44.5284L887.251 48.0406L887.16 49.623L888.516 51.3981L887.989 55.5847L889.506 55.8861L887.125 58.0942L887.819 58.8029L886.853 60.0065L885.633 59.9906L882.853 62.7793L881.612 62.2334L880.782 60.1954L879.034 58.4875L880.26 54.1292L878.828 53.7357L877.675 51.0965L877.885 49.6571L879.365 48.8409L879.88 46.1622L878.555 45.6261L878.771 44.5912L876.528 42.9709L873.229 42.4654L870.73 44.4178L869.132 42.6283L865.274 44.0132L864.557 41.082L863.239 40.556ZM904.599 82.2632L905.649 83.0622L907.888 88.3581L907.757 90.8101L909.704 91.4431L909.78 93.3651L906.505 93.8544L901.154 91.2351L897.23 94.96L894.964 96.0003L892.768 95.5885L892.968 94.517L891.605 93.9118L891.268 93.0713L894.322 92.7312L894.218 92.2255L895.936 91.382L896.11 90.114L896.827 90.0129L895.943 86.9322L893.584 85.5846L893.16 83.0914L895.257 84.1604L896.145 83.3962L898.368 83.5206L897.929 84.3624L899.928 85.2629L901.175 84.8641L900.974 83.8383L904.599 82.2632ZM987.627 866.69L990.903 867.408L990.517 870.446L990.779 872.218L991.464 872.631L990.299 876.894L988.072 876.765L987.992 876.256L984.961 875.451L987.627 866.69Z"/>
</mask>
<path d="M863.239 40.556L862.972 40L861.654 41.3863L861.088 47.1865L865.137 48.5332L865.878 52.1393L861.367 53.8489L861.5 52.6353L858.253 50.7952L851.862 53.7882L849.993 53.7965L848.033 57.1892L844.944 54.6174L844.432 55.5073L842.443 55.7769L840.275 57.0904L838.292 55.9718L833.333 60.1137L831.264 64.8526L828.222 66.6848L827.93 69.7529L826.138 71.4949L826.924 75.1689L828.329 75.4778L827.543 76.8598L827.648 78.9719L824.648 78.6935L823.038 80.1991L823.5 81.0375L821.877 80.9012L818.636 84.0286L816.778 84.8372L815.833 84.5322L811.935 90.0378L812.487 91.156L814.227 91.6814L816.978 96.4559L815.546 98.3063L813.147 98.8585L812.232 100.845L814.299 104.404L817.871 104.163L820.478 106.306L821.922 108.459L824.578 110.054L827.248 109.643L828.38 110.565L831.092 108.52L831.457 109.072L830.391 112.5L831.448 115.637L833.445 117.059L834.865 116.441L832.675 115.27L834.761 114.226L833.311 112.586L834.358 111.758L835.598 112.15L836.35 114.48L837.793 114.039L838.472 115.189L839.348 115.387L839.959 115.398L839.638 113.188L841.78 113.522L841.583 113.049L845.883 112.939L848.898 114.137L851.654 113.731L852.537 111.943L850.821 109.534L851.103 108.615L850.138 107.067L852.173 105.858L852.489 107.565L854.731 108.726L853.864 106.018L854.205 104.972L860.743 102.596L861.626 102.723L861.95 104.887L863.874 105.067L865.985 106.585L868.983 104.438L870.869 104.194L872.327 101.507L875.026 101.768L875.487 105.394L881.486 109.958L881.882 112.365L880.254 115.919L877.82 117.375L875.156 117.664L874.017 116.864L874.261 115.761L876.331 115.49L877.32 114.354L877.083 112.298L875.617 110.809L874.555 110.916L873.581 113.498L871.724 114.85L872.055 120.843L874.461 126.747L874.523 128.342L871.625 131.919L870.692 131.672L869.893 133.914L869.144 133.672L868.06 134.558L867.517 136.211L865.736 135.902L865.109 136.497L863.943 135.277L862.539 135.755L861.159 134.332L862.469 131.701L862.462 129.994L865.002 129.039L863.973 128.805L863.382 126.667L861.381 126.894L859.808 123.38L855.571 123.064L855.131 122.204L853.81 122.548L853.89 120.431L849.73 120.093L848.211 118.912L846.614 119.15L846.679 121.545L845.723 122.993L846.451 123.865L844.047 123.668L844.329 126.523L839.638 127.92L838.121 127.64L836.504 128.267L835.227 127.57L834.002 130.866L832.45 130.586L832.785 131.475L831.772 132.018L831.896 132.713L830.366 133.436L828.194 133.413L828.302 135.649L829.613 137.785L829.395 139.729L830.733 139.896L831.372 141.6L835.799 141.167L838.194 139.977L840.081 143.057L837.251 144.781L834.551 144.474L830.757 146.996L828.05 146.949L822.343 149.334L819.427 149.446L809.95 144.804L807.465 146.364L805.06 149.995L797.595 147.996L788.368 147.583L786.085 146.22L782.638 142.004L778.546 139.339L777.789 136.928L778.539 132.111L776.892 130.435L772.769 129.158L768.282 130.245L766.945 127.832L765.903 127.531L762.033 128.802L759.854 128.711L757.56 131.566L756.287 132.177L754.17 126.493L752.124 125.268L749.761 124.921L747.055 126.116L743.446 131.95L740.258 133.574L737.055 137.096L735.61 137.371L732.12 136.35L728.704 138.941L728.656 141.031L727.982 141.836L721.73 141.758L719.835 142.368L717.753 145.193L716.614 151.306L713.43 153.624L710.941 153.468L706.545 150.555L704.083 150.984L700.315 154.531L692.202 156.961L690.2 156.57L685.755 154.256L678.215 154.724L673.002 153.435L670.74 154.973L669.703 158.829L668.081 159.89L664.458 158.513L660.09 158.314L658.032 156.767L656.553 152.65L657.869 149.596L657.612 147.43L655.262 143.155L651.819 140.159L649.517 139.523L644.336 139.563L636.372 142.554L634.867 142.249L633.115 140.444L630.269 139.905L628.747 140.701L626.64 148.422L623.488 150.923L621.71 153.775L617.575 155.71L614.779 156.056L610.068 157.812L608.136 159.471L597.942 160.842L590.915 164.838L586.465 165.003L581.834 163.497L579.665 159.362L576.183 158.089L573.3 153.714L571.185 152.042L571.866 150.81L575.664 152.617L580.647 150.139L582.669 149.951L583.215 150.898L584.736 150.889L584.057 150.129L585.294 148.281L586.668 147.486L587.423 150.043L588.59 147.421L586.721 146.285L585.84 142.306L583.096 141.148L582.994 140.228L586.713 136.262L588.746 135.561L589.883 134.11L588.484 134.984L586.514 135.142L584.065 138.093L581.616 138.109L574.85 135.839L573.636 137.091L574.091 138.383L566.561 144.941L562.108 144.486L562.088 141.289L557.159 139.038L555.814 143.137L555.789 145.554L550.113 144.581L547.116 146.939L547.878 148.333L547.242 150.308L543.982 151.909L540.754 154.646L537.878 155.858L534.58 159.198L532.774 159.606L532.263 159.005L529.087 161.598L528.732 163.392L530.063 166.903L532.704 166.638L535.391 164.042L536.967 165.337L537.71 164.877L539.099 167.015L537.961 169.918L536.672 171.314L536.276 173.342L535.823 172.652L535.305 173.062L534.799 171.944L530.057 173.02L528.68 170.146L529.058 172.398L531.816 174.875L532.562 177.062L532.608 178.584L532.08 178.714L532.802 181.122L529.7 182.714L530.11 183.958L527.406 185.026L526.725 186.723L525.371 187.926L520.6 188.665L517.594 184.736L515.726 184.986L509.035 180.635L508.46 181.058L504.61 188.672L507.288 187.506L508.142 188.381L511.73 189.511L513.227 191.654L513.78 190.954L515.518 191.84L515.545 193.052L513.789 194.494L512.403 197.007L507.487 198.132L506.776 199.126L507.102 200.675L505.11 202.108L505.745 202.471L504.527 204.44L499.108 207.564L499.059 209.012L496.206 209.155L493.603 210.654L488.188 209.521L483.985 209.717L480.875 208.714L479.05 206.458L476.336 206.158L474.193 207.57L467.617 207.579L464.574 209.973L462.786 209.16L461.216 209.317L457.403 212.857L452.799 214.041L450.171 215.875L449.93 213.069L447.82 212.168L447.355 211.233L447.775 210.006L446.077 207.59L442.791 207.046L437.719 209.3L434.316 209.04L433.293 207.417L428.01 205.627L426.322 205.615L428.862 198.56L429.1 195.416L428.6 194.254L432.775 184.984L436.563 183.675L435.932 182.371L427.226 184.419L423.846 184.307L420.142 180.992L416.635 178.968L413.139 178.019L408.304 181.994L404.403 182.351L402.589 181.843L396.536 185.129L395.667 183.232L392.136 181.867L389.532 181.992L387.065 180.481L384.694 180.904L384.603 180.138L381.79 179.179L380.943 177.832L379.873 177.752L373.273 179.902L368.789 182.796L367.834 182.246L368.914 183.338L369.608 185.714L368.918 190.503L369.498 191.966L370.965 192.859L370.563 195.003L373.305 194.64L373.556 197.033L372.495 197.973L372.385 199.521L373.603 199.726L373.836 200.548L371.867 202.594L370.09 203.35L367.213 202.782L363.872 203.744L362.622 208.031L361.818 208.872L359.9 209.771L359.083 209.111L354.506 209.992L354.895 217.976L353.922 222.337L348.361 222.793L348.072 222.088L346.056 223.019L347.467 223.65L346.755 226.381L344.824 226.862L346.135 230.491L343.516 233.011L340.384 233.382L340.609 234.202L336.793 237.389L337.206 239.852L335.47 244.225L335.448 246.583L337.844 246.259L340.274 244.788L340.558 243.822L341.804 244.253L342.781 243.415L349.437 245.403L352.259 243.922L355.28 244.272L358.188 243.23L358.28 243.65L361.957 243.084L362.501 243.561L363.961 242.756L365.216 243.153L368.245 241.557L372.023 241.581L375.467 239.539L376.955 237.379L377.25 238.037L378.017 237.364L378.833 237.496L379.445 238.534L383.799 238.838L384.037 241.702L386.626 241.284L388.753 242.57L389.653 247.049L388.737 248.788L390.472 248.935L392.643 250.421L391.834 252.401L389.689 253.783L389.713 254.501L390.947 254.818L387.412 258.401L383.727 257.579L381.321 258.551L376.275 259.294L376.058 261.205L377.303 261.394L378.08 264.374L376.588 266.749L376.077 269.346L375.517 269.95L374.314 269.691L371.986 272.317L365.838 272.063L365.701 273.529L364.934 274.342L363.302 273.724L361.351 274.304L357.812 274.04L354.729 276.439L358.163 284.047L357.571 285.791L358.034 287.838L356.474 291.193L356.707 292.742L359.305 296.191L355.389 298.544L354.672 301.433L350.64 302.733L349.358 305.709L345.028 307.479L344.144 309.067L335.887 315.474L333.812 319.805L333.755 322.381L331.694 322.365L330.673 324.593L323.505 328.673L324.564 330.775L328.922 331.407L326.266 335.463L323.294 336.616L322.96 338.392L319.535 339.97L315.587 344.761L313.202 345.011L312.567 347.121L304.235 350.267L303.172 351.358L299.655 351.801L295.704 354.426L294.073 356.511L292.105 356.678L292.392 359.131L294.037 362.028L293.362 364.354L292.426 365.15L289.434 365.812L287.523 364.691L286.535 365.763L284.151 366.29L281.911 368.673L280.293 369.132L281.794 370.349L281.068 371.738L281.389 372.728L280.475 373.071L279.8 374.583L277.38 375.115L276.787 376.14L279.561 379.464L282.191 380.043L282.927 381.825L285.429 383.16L283.035 384.584L278.36 389.448L275.021 389.384L272.324 390.355L266.694 393.963L264.953 396.229L260.809 405.08L258.691 407.192L253.817 410.139L251.469 410.561L248.187 409.734L246.051 410.068L239.824 414.322L228.615 418.378L222.867 419.505L218.466 421.9L215.69 418.164L210.013 423.675L202.45 434.113L200.255 436.229L195.938 438.671L196.936 441.864L203.821 451.313L205.912 456.04L204.479 473.736L199.209 482.161L198.069 486.119L198.482 489.816L195.423 491.385L196.594 496.31L203.973 502.072L201.867 506.668L202.047 508.668L197.735 512.084L197.567 513.696L198.026 513.863L195.197 516.563L189.267 518.957L186.783 519.63L186.002 519.239L184.227 520.335L182.103 522.681L183.235 524.641L181.015 528.082L176.7 528.415L175.607 529.094L176.762 529.076L176.886 531.369L174.622 532.451L173.282 531.838L171.282 534.051L170.777 535.567L167.369 537.714L162.333 539.366L153.571 544.892L148.864 546.526L147.94 547.966L144.846 550.207L145.259 551.771L144.26 553.08L133.484 562.936L131.863 565.777L129.193 567.184L128.7 568.454L127.27 569.015L125.564 571.474L124.993 571.754L124.515 571.172L123.095 571.97L123.433 572.38L122.096 574.815L116.847 578.505L116.681 580.477L112.419 583.051L111.13 583.1L108.785 585.961L104.383 588.692L100.297 592.183L98.8391 594.863L95.2845 598.292L109.713 612.404L107.189 615.092L108.716 616.259L105.659 620.361L103.87 618.885L95.9504 628.596L91.0451 641.405L83.5144 648.59L83.7196 651.111L84.8016 652.146L84.0205 653.998L87.1365 656.746L87.7667 658.361L87.521 659.742L84.0692 663.666L83.8575 665.393L80.7229 670.819L91.273 674.151L93.788 678.51L94.7727 678.45L96.3299 679.684L96.068 678.273L102.852 683.365L107.53 688.431L109.123 687.932L109.83 688.339L110.546 687.46L111.109 689.623L112.597 690.966L113.857 693.615L111.215 696.41L110.272 698.226L110.037 700.945L108.736 702.189L108.099 702.089L107.447 704.208L103.859 706.01L104.334 706.459L103.639 707.401L104.269 708.426L103.335 709.016L103.289 710.662L102.601 710.848L99.9028 714.812L100.179 715.495L99.5449 716.525L98.2059 717.868L98.0079 720.006L98.5001 720.474L97.8766 722.291L98.8204 723.963L97.8113 725.415L98.1473 726.136L96.41 725.956L92.7597 730.386L93.6013 731.283L93.0332 733.229L96.2347 735.999L95.1055 736.896L96.8318 738.995L98.2854 739.582L97.6618 740.125L99.0526 742.513L98.5198 744.155L99.6531 745.044L98.5063 747.118L94.7707 750.809L94.1539 750.22L92.4662 751.817L88.2821 747.521L83.7464 749.068L83.5867 750.139L81.794 749.943L80.5632 748.122L78.2334 749.999L75.1795 754.65L71.2877 751.407L68.7397 753.82L65.909 754.383L65.5426 755.081L64.8226 754.807L64.9427 755.711L63.762 755.737L63.8201 756.519L62.8279 756.849L63.0209 758.055L61.2561 759.587L58.5714 758.472L57.7101 759.035L58.7609 760.766L58.5184 761.979L54.2692 761.059L52.4529 762.661L51.171 765.874L52.4754 767.71L50.0405 769.089L49.4446 770.233L55.4076 773.059L55.7187 773.92L57.7446 774.403L59.1859 777.106L57.7795 779.028L58.193 779.371L57.0384 782.121L55.8099 780.807L55.132 781.014L54.5586 784.157L49.6219 793.906L50.2345 797.023L47 799.53L47.295 801.161L48.6254 800.234L49.9046 800.74L51.2402 799.674L52.3304 799.862L53.5005 799.168L55.1303 797.241L55.6221 794.711L56.7112 794.902L58.9326 793.995L61.784 795.261L65.4649 794.672L68.2419 795.893L69.6631 795.868L70.6637 796.339L70.5999 796.979L71.0867 796.651L71.8315 798.634L73.0509 796.229L74.0446 795.426L74.8568 796.081L75.649 795.068L75.9324 792.841L77.1012 790.926L84.177 792.059L89.4552 790.652L91.5427 794.335L98.3106 794.817L100.806 795.922L103.396 795.346L105.1 792.792L106.033 793.823L107.208 791.494L113.432 788.288L115.199 787.997L118.757 785.124L119.745 784.108L118.952 780.029L119.208 777.775L121.683 776.034L122.58 776.398L124.872 772.609L127.084 772.145L128.971 769.472L130.198 769.345L130.104 768.575L132.044 767.767L133.876 765.966L136.692 766.836L137.355 766.626L137.235 765.744L138.73 766.616L140.151 764.689L143.96 762.725L147.296 761.843L152.827 757.478L157.701 748.949L157.432 746.184L156.268 745.599L157.536 743.398L155.135 744.078L152.932 743.473L152.591 741.901L153.425 740.201L152.883 739.606L149.322 743.513L149.882 744.003L147.777 745.104L147.836 745.646L144.113 747.264L142.041 745.458L142.516 744.152L138.823 740.692L136.643 735.863L134.991 733.733L135.122 731.661L135.713 731.683L136.297 730.343L138.523 729.694L139.797 727.9L138.426 726.165L138.919 725.181L138.328 725.14L138.654 724.06L137.924 723.554L138.565 722.702L129.358 718.176L139.798 696.181L165.485 676.562L193.734 671.083L222.937 652.703L273.777 653.625L317.26 665.94L311.28 683.279L311.291 684.662L312.682 685.967L312.374 688.028L310.312 689.894L308.389 692.934L304.652 693.412L301.758 695.908L301.625 699.196L301.959 700.782L304.144 703.339L305.842 706.87L305.778 708.696L309.551 708.606L310.364 710.385L309.872 711.477L310.794 714.479L312.876 714.159L315.583 716.37L316.866 716.507L320.136 720.784L319.457 722.426L320.037 723.481L321.541 723.652L323.061 725.785L324.396 726.147L325.475 728.149L327.657 726.95L328.729 727.505L330.963 732.535L329.078 735.398L329.479 738.864L327.688 742.006L327.988 743.86L326.916 745.248L323.11 747.025L322.284 750.388L320.253 753.292L317.303 754.233L317.422 758.4L313.764 762.607L312.945 765.291L311.786 766.788L314.613 777.24L312.852 778.61L312.403 781.227L308.091 785.674L308.381 787.126L307.638 789.716L308.993 792.628L309.597 796.664L310.333 798.015L312.936 797.643L315.4 800.93L316.509 800.099L322.608 799.261L323.804 799.701L324.535 801.344L326.842 802.144L332.392 802.8L333.682 802.431L336.428 803.824L339.015 802.607L341.896 803.371L339.77 808.023L340.399 810.499L337.366 815.662L336.362 816.384L339.383 820.932L338.212 823.664L339.354 826.092L338.085 826.314L335.758 828.112L333.084 836.328L334.229 836.973L335.178 838.611L339.19 840.16L339.344 838.786L340.291 837.711L344.926 836.508L345.3 835.126L349.597 829.942L352.534 829.603L353.574 830.378L352.865 834.147L355.639 836.573L357.579 836.128L358.948 840.622L361.561 845.717L362.698 845.392L364.101 847.939L367.319 850.638L368.463 857.421L373.335 859.993L374.833 858.94L376.447 860.705L376.968 865.28L379.37 866.799L380.533 869L379.863 870.213L376.324 871.638L375.806 873.541L378.598 877.441L384.849 879.956L385.2 884.197L384.315 887.465L386.479 891.373L386.816 894.327L389.739 897.752L392.074 898.755L393.296 900.619L393.21 904.787L395.499 906.645L397.084 907.006L397.028 909.22L398.172 911.558L402.965 915.76L401.919 917.482L403.26 919.243L403.587 921.831L404.748 923.276L407.143 923.771L410.156 923.202L411.58 921.455L414.476 919.577L415.386 917.206L421.117 914.224L423.22 914.492L424.43 915.331L424.45 916.775L423.632 917.679L427.921 921.633L429.062 921.287L430.765 922.931L432.694 923.547L434.533 922.831L435.883 921.553L434.893 918.271L435.666 915.919L436.726 915.533L437.524 913.812L438.713 913.63L440.534 912.131L440.747 909.898L443.694 909.467L444.473 908.449L448.073 909.374L451.088 907.934L452.215 910.032L453.383 910.19L457.957 904.837L459.648 904.49L462.268 897.72L465.129 894.935L467.436 897.05L471.959 897.335L472.518 899.546L474.334 900.196L476.465 900.057L480.707 897.917L482.654 899.571L484.505 900L484.503 901.56L485.989 903.325L487.506 902.948L489.999 904.708L490.521 904.48L492.603 906.43L493.836 906.116L497.198 902.665L497.426 900.995L498.653 899.606L499.828 900.705L501.49 900.908L504.645 899.308L505.069 898.167L506.583 897.821L508.863 895.641L511.966 890.503L515.726 890.133L516.45 888.726L519.833 889.509L521.448 888.584L520.403 883.436L522.367 881.136L525.421 879.532L527.294 879.587L529.089 876.538L531.696 878.555L534.985 876.414L535.447 877.493L538.083 879.223L540.421 879.056L541.349 879.924L542.687 879.01L543.894 876.258L542.3 870.308L543.618 866.864L545.004 865.6L548.71 865.993L550.733 865.076L553.898 865.846L555.044 869.532L554.865 871.119L557.03 872.873L563.814 873.399L566.698 872.025L572.932 873.051L576.058 871.274L577.358 871.162L578.386 870.128L580.659 870.538L581.907 871.372L582.622 873.152L584.651 875.332L585.047 878.161L585.888 878.993L588.801 880.126L591.451 880.127L594.905 883.028L594.106 889.01L595.341 889.91L595.778 892.031L596.921 892.255L598.216 894.042L602.781 893.96L603.337 891.999L606.135 889.018L606.735 886.24L613.457 888.003L615.735 890.745L620.187 893.517L621.177 895.76L622.906 897.062L624.74 896.137L626.15 894.379L629.856 892.606L632.88 893.511L634.527 894.978L641.331 895.366L643.073 897.232L643.779 895.953L645.883 895.549L647.126 892.499L644.426 888.186L645.04 883.36L647.151 882.596L647.702 880.225L646.468 878.508L647.372 878.028L647.289 876.997L648.613 875.817L648.519 874.1L647.288 872.518L647.243 871.353L652.373 869.189L653.133 867.016L655.536 864.455L657.006 860.895L660.225 861.368L662.909 860.793L664.489 861.33L669.755 860.592L672.205 861.287L678.383 859.755L682.124 861.351L683.639 859.565L685.871 853.974L689.41 854.083L689.671 852.319L688.893 850.964L690.999 848.312L689.247 845.364L692.421 841.85L696.595 839.548L692.99 830.966L693.206 828.899L692.299 828.074L692.571 825.653L694.622 822.837L694.774 818.904L696.123 816.344L696.392 813.813L698.983 814.226L700.879 813.161L702.498 813.605L707.155 811.475L711.084 811.722L715.878 810.382L716.729 809.212L719.342 808.922L719.841 807.394L721.083 806.289L721.586 800.441L724.638 798.208L730.637 797.505L732.39 795.757L734.059 792.608L733.388 792.224L733.363 789.739L732.309 788.391L732.352 785.868L732.729 784.62L734.17 783.382L735.07 780.63L737.164 779.338L737.234 776.93L733.419 772.908L732.824 767.598L730.367 763.622L728.915 757.027L725.304 756.063L724.353 755.453L723.168 752.549L721.558 752.562L720.368 750.232L719.943 746.443L717.276 746.46L717.192 745.126L712.941 744.514L711.339 743.256L710.652 741.402L712.415 740.73L712.375 738.689L716.926 735.479L718.475 732.784L721.007 732.106L722.491 729.899L723.286 727.244L724.63 726.045L725.784 725.939L728.505 722.761L731.453 722.865L735.957 725.427L741.416 724.744L746.271 722.001L747.618 722.541L751.761 719.357L751.52 717.857L752.671 716.207L752.586 714.651L755.84 711.593L755.198 711.473L755.356 710.418L754.76 709.855L755.825 708.67L755.504 707.951L759.074 705.27L760.946 705.62L763.641 705.092L764.547 702.516L767.652 702.731L766.728 701.51L768.588 700.068L768.324 697.682L766.983 696.157L767.929 694.549L770.835 693.263L774.336 694.727L776.058 692.231L777.73 691.627L779.25 689.994L783.276 688.638L783.915 685.52L785.101 684.533L783.668 682.857L784.648 680.965L784.161 678.715L782.268 676.422L781.309 677.328L780.354 677.135L775.789 674.571L778.918 671.79L778.902 670.344L781.586 666.531L783.92 667.537L787.193 666.593L795.635 659.375L796.665 656.964L800.155 654.717L802.767 654.172L803.925 655.224L807.12 654.332L808.284 654.874L809.22 653.522L811.181 653.439L813.113 651.629L815.826 651.617L821.062 649.345L822.52 649.11L822.77 649.873L824.766 649.373L826.107 650.221L827.087 651.888L826.977 653.163L829.848 655.268L829.974 657.792L831.084 658.142L830.47 660.482L828.456 662.494L829.464 665.377L828.249 667.742L828.861 669.417L830.172 670.127L831.824 672.924L830.181 676.04L832.717 680.093L829.488 684.284L831.261 687.284L831.355 692.603L832.424 695.216L830.686 697.128L829.714 699.428L830.644 702.157L830.254 706.879L830.9 708.262L829.357 710.688L827.87 711.213L827.304 713.926L824.142 714.727L823.42 716.477L823.539 718.968L822.704 719.913L823.146 721.695L820.799 722.56L819.149 724.331L821.103 727.269L821.825 730.057L826.031 735.197L827.94 739.986L825.632 741.055L825.444 742.585L823.69 744.338L824.393 746.728L830.509 748.688L831.275 752.809L832.425 754.23L839.342 755.689L846.45 759.742L848.496 758.975L851.856 760.592L853.093 766.943L854.365 769.868L858.463 772.487L858.604 775.156L861.619 776.152L863.541 779.344L864.727 785.049L866.156 786.25L868.057 785.702L868.935 786.256L869.571 787.468L869.247 788.557L873.952 789.118L874.126 789.902L873.013 790.04L872.955 791.715L870.791 793.354L870.688 794.769L871.656 794.902L875.991 799.292L876.657 804.377L887.822 803.548L890.549 806.976L890.986 808.442L894.911 810.189L897.795 809.488L898.529 811.711L899.906 813.257L903.127 813.279L908.568 815.447L911.778 809.566L917.425 804.082L922.946 813.481L925.516 813.853L930.136 816.833L935.367 816.594L937.322 813.614L940.212 815.409L945.984 821.963L948.69 823.29L950.278 825.181L951.714 825.232L952.488 831.6L949.238 837.527L946.223 836.231L944.334 838.421L946.514 839.663L945.654 841.127L944.817 840.654L943.916 844.883L941.582 847.957L937.283 849.57L933.277 855.836L931.026 864.457L932.57 864.679L933.069 863.182L934.115 863.102L938.628 864.122L939.756 863.598L941.727 865.212L945.22 864.938L946.181 866.266L947.691 866.658L947.963 867.818L948.773 867.904L949.002 869.654L950.94 871.8L954.395 874.864L955.657 875.16L956.771 877.353L959.867 879.155L964.692 878.095L965.626 880.011L966.235 883.86L964.642 887.88L964.585 890.692L968.999 896.761L971.136 896.756L974.21 902.268L974.463 904.435L973.401 906.74L974.219 908.347L975.207 908.58L976.53 911.251L977.224 918.266L978.24 919.638L979.812 918.262L980.825 919.786L976.837 922.513L971.117 931.002L970.468 936.342L973.07 934.642L975.743 935.014L976.974 932.46L978.884 931.435L981.919 930.455L983.278 930.961L984.242 930.479L984.223 931.289L986.046 932.451L985.872 933.656L988.535 935.477L989.854 935.166L990.468 933.537L992.182 933.943L993.747 932.682L995.101 933.838L994.753 934.131L997.126 934.303L995.958 940.158L997.422 939.753L999.237 940.965L1003.33 942L1004.82 940.23L1007.72 940.693L1008.68 939.708L1007.57 938.95L1009.74 934.066L1009.07 931.551L1009.99 931.092L1010.6 929.07L1011.6 929.025L1012.09 927.664L1013.77 926.478L1012.98 926.038L1014.1 925.472L1013.27 921.766L1014 919.673L1014.69 919.327L1015.03 916.808L1015.94 916.052L1018.65 915.975L1020.22 913.097L1022.23 911.59L1022.73 909.963L1022.04 909.13L1022.26 908.435L1023.41 908.54L1024.51 906.652L1025.65 906.229L1025.23 905.135L1025.71 904.526L1025.04 903.823L1021.94 905.14L1021.83 899.649L1020.6 899.006L1019.09 900.004L1019.21 898.972L1016.36 897.353L1016.62 895.334L1013.24 895.569L1013.35 894.817L1011.25 892.36L1007.23 892.812L1006.2 891.818L1003.96 891.967L1004.93 887.99L1004.09 886.831L1002.15 886.012L1001.72 884.982L1003.26 882.614L1002.27 877.385L996.045 874.665L994.473 872.947L994.311 871.818L994.942 872.545L996.606 871.817L996.441 868.349L1000.21 868.434L1001.4 867.132L1001.46 864.988L1002.04 864.602L1003.56 865.102L1004.94 864.246L1005.06 862.79L1006.8 862.396L1005.57 859.162L1004.95 851.869L1000.74 847.344L1000.28 846.004L1000.89 842.61L1003.19 839.977L1003.29 836.97L1004.99 835.629L1006.9 835.482L1010.21 832.797L1011.9 832.784L1013.6 831.247L1016.78 832.019L1022.01 830.449L1022.61 825.106L1024.21 823.826L1025.91 820.076L1020.56 805.989L1026.02 802.602L1029.08 802.089L1030.62 799.707L1032.96 798.465L1035.86 798.419L1037.55 793.878L1039.92 790.034L1041.89 789.29L1044.62 786.771L1046.8 786.043L1048.27 782.144L1051 781.631L1054.4 782.857L1055.21 782.383L1056.49 780.229L1058.71 778.302L1058.75 776.148L1059.76 774.775L1058.97 773.8L1058.77 771.766L1059.68 770.621L1061.07 765.066L1062.52 764.157L1064.85 763.991L1066.29 762.337L1066.63 759.42L1067.55 758.019L1066.94 755.688L1071.25 753.772L1074.71 754.299L1075.51 753.574L1075.92 748.685L1075.44 747.428L1076.44 745.76L1075.69 743.555L1076.98 740.79L1076.15 738.737L1078.19 737.44L1078.91 735.817L1078.76 733.311L1081.73 731.64L1082.82 728.424L1086.9 724.899L1085.87 719.321L1086.96 717.022L1090.09 715.516L1090.16 713.024L1091.42 711.081L1089.73 709.486L1089.16 707.157L1091.58 703.803L1090.4 701.309L1090.92 700.057L1090.47 698.373L1086.18 697.258L1084.99 693.394L1084.15 692.852L1084.48 691.021L1083.85 690.147L1084.66 689.589L1084.8 687.67L1085.51 687.44L1086.74 685.005L1084.87 682.988L1084.08 680.56L1086.01 677.531L1085.03 676.71L1086.17 675.999L1085.46 671.828L1084.44 671.448L1083.93 669.401L1081.87 669.638L1080.26 668.956L1079.64 667.235L1075.44 663.187L1075.07 657.041L1076.72 655.87L1081.09 654.965L1084.81 650.286L1083.7 649.684L1083.33 648.333L1084.56 642.355L1083.57 640.321L1084.98 638.594L1085.02 636.738L1086.44 634.283L1088.67 634.188L1093.21 632.494L1095.1 631.059L1103.21 630.211L1103.83 631.207L1107.41 630.455L1108.81 630.997L1109.87 629.574L1111.52 628.712L1112.97 630.603L1114.54 631.144L1114.5 633.218L1113.4 633.982L1113.02 635.607L1115.48 639.881L1118.25 640.913L1119.67 645.126L1121 645.361L1122.14 646.659L1126.5 647.919L1130.4 643.749L1130.39 641.05L1131.07 639.396L1130.58 638.03L1133.54 633.879L1140.07 630.519L1141.15 629.146L1142.72 628.91L1142.96 629.403L1141.94 630.444L1142.45 633.823L1141.93 639.798L1138.2 640.01L1138.39 642.003L1142.5 641.769L1143.35 646.752L1143.08 648.049L1141.35 649.658L1141.82 659.093L1140.69 661.698L1140.99 662.966L1139.87 668.83L1140.31 670.873L1142.14 672.903L1143.73 678.992L1143.63 681.942L1144.42 683.397L1143.16 685.616L1141.97 685.76L1142.6 687.217L1141.94 689.127L1146.56 691.564L1147.68 691.328L1148.78 693.117L1152.98 694.413L1154.25 698.154L1156.78 700.27L1157.69 706.975L1158.41 707.46L1158.55 708.906L1159.32 708.787L1159.88 711.282L1164.48 717.811L1169.59 722.502L1171.35 720.732L1172.89 720.768L1173.58 722.396L1176.95 723.923L1178.52 725.625L1180.17 726.122L1182.18 725.791L1183.04 726.482L1185.07 725.473L1188.58 726.018L1191.18 729.287L1193.24 728.95L1196.27 729.851L1198.55 729.497L1200.9 728.225L1201.05 727.153L1204.74 725.078L1206.88 725.361L1207.36 723.593L1209.38 722.145L1210.72 723.64L1210.82 724.909L1212.64 726.314L1214.56 726.371L1217.21 727.718L1219.62 727.228L1221.11 726.768L1222.25 720.717L1224.21 719.092L1224.7 717.44L1224.67 714.644L1222.23 713.777L1222 712.905L1222.38 711.523L1225.17 708.749L1223.75 705.095L1228.11 700.488L1228.85 700.944L1230.17 700.088L1231.38 701.921L1234.57 703.387L1236.93 706.603L1240.83 707.735L1243.05 705.071L1248.52 703.673L1250.75 701.599L1252.57 700.822L1253.54 701.05L1256.77 698.179L1258.02 695.931L1259.54 695.917L1260.37 695.236L1262.1 695.58L1263.17 694.388L1265.36 695.13L1265.67 694.526L1266.54 694.834L1267.05 694.317L1267.39 694.831L1268.27 694.267L1269.12 695.302L1272.99 692.586L1273.95 690.296L1278.59 688.787L1281.18 686.911L1282.09 687.503L1284.33 691.69L1285.15 691.142L1286.22 691.551L1286.92 693.66L1288.77 692.746L1288.42 691.124L1289.82 689.671L1295.55 687.62L1297.16 687.789L1297.52 688.091L1296.46 690.201L1299.21 694.666L1305.64 700.159L1308.36 699.8L1309.16 700.386L1308.6 702.42L1309.03 704.428L1305.75 708.118L1305.37 710.602L1304.03 713.081L1308.63 717.27L1310.31 717.585L1310.21 719.103L1309.12 720.247L1310.54 721.857L1310.53 722.855L1309.07 724.762L1307.71 725.258L1309.02 730.393L1313.07 732.318L1320.05 733.968L1323.91 737.122L1327.64 739.043L1328.41 742.496L1327.82 743.065L1328.65 743.619L1329.24 747.007L1328.13 747.664L1328.12 748.912L1326.97 750.181L1327.07 752.642L1323.97 755.41L1328.6 757.56L1330 759.725L1332.42 761.104L1335.62 757.343L1337.93 756.277L1342.62 755.93L1344.39 757.222L1347.45 757.382L1348.8 758.098L1350.47 757.279L1351.62 757.604L1355.88 755.063L1357.42 750.913L1364.94 744.129L1365.43 742.469L1364.02 738.692L1361.32 736.497L1361.35 735.013L1360.68 734.051L1361.05 731.573L1358.55 730.193L1359.22 728.419L1358.48 726.831L1355.78 725.582L1353.69 723.757L1353.66 721.46L1346.72 717.18L1345.59 713.006L1342.9 708.325L1343.39 704.449L1344.41 702.698L1344.17 699.849L1345.63 699.757L1347.44 697.65L1350.62 695.972L1349.65 691.921L1350.42 689.946L1350.08 688.485L1354.82 684.488L1356.39 684.171L1358.95 685.083L1360.88 683.938L1361.52 682.467L1360.93 676.328L1362.37 674.805L1360.62 671.273L1359.4 671.045L1356.95 672.436L1356.42 671.8L1356.27 667.742L1355.36 667.148L1354.96 665.411L1351.81 665.062L1350.62 663.857L1347.53 665.002L1346.91 666.449L1344 665.428L1343.59 666.606L1342.3 667.048L1341.76 668.573L1338.63 667.984L1335.33 668.691L1335.34 666.644L1334.39 665.472L1330.4 666.523L1329.5 665.814L1328.41 663.736L1328.49 660.91L1327.87 659.726L1326.72 660.256L1323.38 658.822L1322.52 656.956L1323.56 656.044L1323.36 654.578L1324.03 653.288L1324.95 652.934L1324.84 652.191L1326.69 650.873L1327.3 648.945L1326.38 647.543L1326.37 645.523L1323.83 642.884L1323.67 641.979L1325.44 638.453L1324.43 637.328L1324.29 636.016L1325.62 633.114L1324.38 631.997L1323.49 628.378L1324.92 628.153L1326.39 626.879L1327.16 622.66L1326.04 619.805L1327.01 618.571L1324.54 616.784L1324 614.593L1324.9 612.972L1329.47 612.22L1330.01 610.969L1331.75 609.737L1332.69 606.18L1336.01 604.159L1336.97 602.516L1335.2 600.616L1334.87 598.889L1340.18 597.879L1341.74 595.445L1341.89 592.511L1340.6 590.568L1340.79 588.624L1341.93 587.155L1341.17 584.958L1342.26 582.75L1343.61 582.77L1345.67 584.382L1350.16 585.303L1352.88 584.172L1353.2 582.748L1355.15 582.761L1357.57 581.009L1361.03 580.499L1367.48 576.754L1370.51 575.863L1370.7 577.131L1374.76 578.205L1377.55 579.939L1380.3 574.415L1385.04 571.595L1385.63 575.359L1386.76 577.57L1391.22 582.986L1387.88 587.314L1385.84 591.422L1387.16 598.941L1389.68 600.646L1392.7 597.971L1394.42 597.724L1396.73 600.038L1400.07 601.03L1400.72 603.638L1402.75 606.25L1402.91 608.047L1402.26 609.389L1402.78 610.285L1406.55 610.533L1407.57 611.774L1409.8 611.078L1411.96 609.488L1413.55 610.533L1415.93 613.569L1419.69 610.534L1420.21 607.609L1423.96 607.777L1427.62 609.083L1428.78 610.283L1430.33 610.253L1434.32 613.029L1438.06 610.602L1440.94 609.679L1445.74 614.207L1446.7 615.987L1451.74 619.027L1453.54 616.368L1453.71 614.207L1457.57 613.582L1457.45 611.005L1459.58 606.913L1458.38 604.512L1458.57 602.716L1460.4 599.037L1461.73 597.794L1461.29 596.256L1462.66 592.347L1461.41 591.17L1462.53 588.353L1461.62 585.313L1463.71 582.597L1464 580.643L1462.96 580.753L1461.56 579.721L1454.79 572.638L1449.63 568.913L1448.81 569.771L1441.55 570.255L1438.09 571.729L1435.96 570.934L1435.2 570.131L1435.79 569.168L1435.37 566.878L1434.15 565.183L1434.06 563.627L1432.74 562.601L1432.42 560.882L1432.98 559.553L1432.4 556.75L1432.9 555.171L1430.67 550.416L1429.56 549.412L1430.11 548.063L1431.38 548.169L1433.2 547.147L1436.28 539.807L1438.37 539.818L1440.25 538.212L1440.03 536.758L1440.88 535.722L1441.1 533.629L1439.76 532.979L1438.17 530.758L1438.06 529.519L1435.29 527.486L1435.5 526.963L1438.87 524.88L1439.28 523.816L1446.34 518.43L1448.27 518.717L1448.57 517.886L1448.99 514.035L1447.89 508.762L1445.99 506.847L1445.77 505.176L1442.34 502.312L1443.56 501.785L1443.59 499.596L1444.47 498.444L1447.42 498.054L1450.1 496.634L1453.26 489.712L1452.67 487.104L1454.12 485.864L1452.92 483.304L1454.01 481.243L1454.94 481.539L1456.02 480.735L1456 479.148L1455.19 478.316L1456.72 475.38L1457.68 474.915L1456.49 468.84L1457.5 463.924L1456.87 460.234L1455.45 458.795L1458.7 454.258L1458.73 451.155L1459.52 450.106L1459.78 446.87L1462.17 444.665L1461.88 443.23L1462.83 439.76L1461.89 437.42L1463.15 434.547L1459.04 433.076L1456.74 430.328L1453.02 428.625L1452.57 427.707L1450.6 427.963L1447.6 427.139L1446.95 426.341L1444.48 426.301L1443.48 425.695L1442.12 424.128L1442.41 421.953L1443.7 419.419L1443.55 417.374L1441.64 415.424L1439.15 414.219L1435.92 410.499L1434.71 407.651L1431.9 406.118L1430.44 406.367L1426.51 410.583L1421.18 409.816L1418.53 411.073L1417.99 414.028L1416.5 414.826L1416.72 416.154L1414.79 418.808L1413.22 422.546L1412.7 427.211L1411.67 428.024L1406.93 428.921L1406.37 430.613L1406.69 431.983L1405.92 433.407L1409.37 437.643L1409.02 440.26L1404.25 440.497L1403.03 442.629L1401.2 441.129L1393.66 438.605L1385.45 437.454L1385.89 443.137L1384.34 444.554L1383.17 450.926L1380.8 453.51L1381.39 456.108L1383.65 458.611L1382.75 462.64L1383 464.854L1382.4 465.52L1382.97 466.944L1378.78 466.495L1373.96 467.705L1372.46 466.793L1370.79 466.876L1370.02 468.444L1367.61 470.246L1367.15 471.83L1363.95 472.667L1363.1 474.028L1361.11 473.879L1359.46 475.297L1358.58 474.182L1356.24 473.689L1353.84 475.515L1348.74 475.014L1347.76 475.515L1347.5 476.969L1343.23 478.471L1341.69 476.036L1339.02 473.681L1339.24 470.68L1337.6 469.255L1336.49 469.704L1333.7 468.916L1328.9 469.445L1326.29 468.009L1326.52 462.208L1323.55 460.533L1322.57 458.101L1320.34 457.109L1318.56 453.57L1316.5 452.223L1315.86 450.937L1312.14 452.213L1309.48 450.747L1307.2 450.578L1306.17 449.165L1304.81 448.861L1304.6 446.268L1303.38 444.472L1299.85 446.131L1298.77 446.052L1297.51 444.408L1293.46 446.073L1290.68 445.638L1285.78 443.139L1282.9 439.863L1281.03 440.205L1279.06 439.282L1277.33 437.33L1274.18 436.707L1273.03 435.802L1271.6 435.978L1273.03 433.493L1271.74 433.223L1271.8 430.089L1271.21 428.835L1271.93 428.284L1272.41 425.809L1269.91 423.026L1271.43 421.083L1271.46 418.293L1274.23 415.033L1273.77 413.936L1274.31 412.94L1276.65 410.723L1275.78 409.001L1275.55 406.025L1270.7 403.477L1269.9 401.98L1270.04 400.437L1272.92 398.549L1271.63 396.735L1268.8 396.691L1266.48 395.836L1265.61 397.834L1264.29 398.916L1260.63 399.503L1259.73 400.486L1260.23 400.62L1259.1 400.675L1258.29 399.775L1257.42 399.865L1255.17 397.355L1250.18 395.677L1248.25 393.173L1245.28 391.995L1243.1 388.914L1238.18 388.676L1236.28 389.419L1231.6 389.622L1230.71 387.743L1229.65 387.016L1222.27 386.699L1218.77 384.582L1218.35 383.538L1219.26 382.943L1218.95 381.971L1215.82 382.615L1212.89 381.329L1210.99 379.689L1210.91 378.215L1203.53 379.989L1199.42 379.267L1198.25 381.92L1195.55 383.129L1190.71 382.054L1186.43 378.362L1185.27 379.632L1182.74 380.454L1179.77 382.472L1176.88 382.445L1172.51 384.409L1171.13 383.56L1170.23 379.69L1166.52 376.833L1159.27 379.125L1157.87 380.607L1154.1 380.467L1153.96 381.814L1151.39 380.864L1149.65 384.109L1148.45 382.546L1148.57 380.924L1146.88 381.611L1146.54 382.903L1145.29 378.478L1145.47 376.887L1151.69 372.892L1158.33 367.549L1160.14 362.6L1159.99 358.545L1157.8 346.53L1156.35 341.833L1154.02 338.485L1151.39 332.503L1149.68 324.133L1150.9 317.313L1153.98 310.612L1154.62 306.582L1160.49 295.802L1163.51 287.406L1163.77 283.546L1168.52 279.465L1171.73 271.155L1179.59 265.351L1181.64 262.522L1185.17 249.962L1187.14 246.908L1192.98 240.435L1193.55 240.917L1196.39 239.88L1201.13 239.802L1204.21 238.629L1207.4 235.156L1208.41 232.401L1207.97 228.437L1204.11 226.206L1202.32 223.1L1201.46 222.997L1201.05 215.542L1199.2 209.628L1199.9 207.117L1203.45 203.438L1203.76 201.438L1199.61 199.873L1192.33 199.056L1188.2 193.136L1187.41 193.458L1186.29 196.961L1183.8 196.378L1179.68 187.451L1174.61 183.197L1173.47 181.456L1172.44 160.793L1152.73 156.46L1121.21 125.251L1078.06 107.858L1065.02 109.495L1056.36 108.428L1052.88 109.998L1052.73 109.188L1051.11 109.556L1047.22 104.661L1045.01 103.81L1041.4 105.384L1034.77 103.329L1030.5 99.9641L1027.34 98.4715L1021.62 98.8354L1005.21 95.1043L1002.55 95.8006L994.811 100.348L991.709 101.151L990.055 103.202L981.062 107.5L979.643 108.959L974.966 109.464L967.23 112.467L964.751 112.559L961.535 110.018L958.989 109.562L959.231 107.072L958.496 102.97L956.643 100.073L954.359 98.0709L951.231 97.6784L951.396 95.6776L953.04 94.0884L953.465 92.4782L952.536 91.6416L951.308 91.5686L951.534 90.2259L952.563 90.4877L953.579 89.7175L954.373 90.8418L955.186 89.8595L956.148 90.7862L955.203 92.5884L956.279 91.8866L958.365 91.8811L959.223 90.5742L957.206 88.3007L958.158 87.3L956.241 86.6666L950.537 87.6199L949.732 84.092L948.925 83.6385L945.929 82.5497L944.835 83.7675L943.411 84.1617L941.387 83.3569L943.637 81.051L941.225 81.1504L939.405 78.3771L936.938 78.0363L939.24 75.3602L938.105 75.0031L937.521 71.8008L934.363 73.4902L935.186 76.8577L932.88 76.0971L931.253 77.2124L930.7 76.7537L929.43 79.3301L928.037 78.849L928.36 79.6951L927.563 80.5045L925.989 80.7864L926.161 82.3351L926.96 83.1538L925.859 86.0446L933.551 87.2254L934.684 87.8555L934.687 90.4114L937.415 90.7272L938.595 92.1586L937.36 92.9586L935.469 92.8398L933.415 98.1626L934.204 100.323L931.87 100.258L922.247 93.9607L912.952 92.4267L912.477 90.6811L912.858 88.9478L914.256 83.8174L915.54 81.7477L914.515 80.7606L911.911 80.0162L911.953 79.5028L909.803 79.3493L907.683 75.4893L908.761 71.6613L910.519 70.5679L911.578 68.4606L916.548 68.0664L917.142 67.3115L917.048 65.5895L913.244 62.8819L913.821 62.1348L912.734 60.9298L908.593 59.5105L904.656 61.5644L902.677 63.901L900.67 62.7005L899.071 57.1544L900.645 55.8307L898.953 54.1161L898.273 49.9009L896.776 50.2826L894.071 49.4067L892.427 47.565L890.896 47.5722L891.8 45.4982L890.722 43.6313L888.455 44.5284L887.251 48.0406L887.16 49.623L888.516 51.3981L887.989 55.5847L889.506 55.8861L887.125 58.0942L887.819 58.8029L886.853 60.0065L885.633 59.9906L882.853 62.7793L881.612 62.2334L880.782 60.1954L879.034 58.4875L880.26 54.1292L878.828 53.7357L877.675 51.0965L877.885 49.6571L879.365 48.8409L879.88 46.1622L878.555 45.6261L878.771 44.5912L876.528 42.9709L873.229 42.4654L870.73 44.4178L869.132 42.6283L865.274 44.0132L864.557 41.082L863.239 40.556ZM904.599 82.2632L905.649 83.0622L907.888 88.3581L907.757 90.8101L909.704 91.4431L909.78 93.3651L906.505 93.8544L901.154 91.2351L897.23 94.96L894.964 96.0003L892.768 95.5885L892.968 94.517L891.605 93.9118L891.268 93.0713L894.322 92.7312L894.218 92.2255L895.936 91.382L896.11 90.114L896.827 90.0129L895.943 86.9322L893.584 85.5846L893.16 83.0914L895.257 84.1604L896.145 83.3962L898.368 83.5206L897.929 84.3624L899.928 85.2629L901.175 84.8641L900.974 83.8383L904.599 82.2632ZM987.627 866.69L990.903 867.408L990.517 870.446L990.779 872.218L991.464 872.631L990.299 876.894L988.072 876.765L987.992 876.256L984.961 875.451L987.627 866.69Z" fill="white" fill-opacity="0.5" stroke="#FFDBFB" stroke-width="16" mask="url(#path-2-inside-1_123_438)"/>
</g>
<defs>
<clipPath id="clip0_123_438">
<rect width="1512" height="982" fill="white"/>
</clipPath>
</defs>
</svg>
