<svg width="1417" height="902" viewBox="0 0 1417 902" fill="none" xmlns="http://www.w3.org/2000/svg">
<mask id="path-1-inside-1_123_444" fill="white">
<path d="M816.239 0.556029L815.972 0L814.654 1.38635L814.088 7.18652L818.137 8.53321L818.878 12.1393L814.367 13.8489L814.5 12.6353L811.253 10.7952L804.862 13.7882L802.993 13.7965L801.033 17.1892L797.944 14.6174L797.432 15.5073L795.443 15.7769L793.275 17.0904L791.292 15.9718L786.333 20.1137L784.264 24.8526L781.222 26.6848L780.93 29.7529L779.138 31.4949L779.924 35.1689L781.329 35.4778L780.543 36.8598L780.648 38.9719L777.648 38.6935L776.038 40.1991L776.5 41.0375L774.877 40.9012L771.636 44.0286L769.778 44.8372L768.833 44.5322L764.935 50.0378L765.487 51.156L767.227 51.6814L769.978 56.4559L768.546 58.3063L766.147 58.8585L765.232 60.8447L767.299 64.4044L770.871 64.1631L773.478 66.3056L774.922 68.4594L777.578 70.054L780.248 69.6428L781.38 70.5645L784.092 68.5198L784.457 69.0717L783.391 72.5002L784.448 75.6373L786.445 77.0587L787.865 76.4413L785.675 75.2699L787.761 74.2261L786.311 72.5862L787.358 71.7579L788.598 72.1495L789.35 74.48L790.793 74.0386L791.472 75.1893L792.348 75.3873L792.959 75.398L792.638 73.1877L794.78 73.5216L794.583 73.0492L798.883 72.9388L801.898 74.1366L804.654 73.7308L805.537 71.9429L803.821 69.5336L804.103 68.6152L803.138 67.0666L805.173 65.8581L805.489 67.5647L807.731 68.7258L806.864 66.0184L807.205 64.9722L813.743 62.5962L814.626 62.723L814.95 64.8872L816.874 65.0669L818.985 66.5852L821.983 64.4385L823.869 64.1938L825.327 61.5067L828.026 61.768L828.487 65.394L834.486 69.9582L834.882 72.3651L833.254 75.9189L830.82 77.3746L828.156 77.6644L827.017 76.8642L827.261 75.7609L829.331 75.4896L830.32 74.3539L830.083 72.2984L828.617 70.8085L827.555 70.9163L826.581 73.4981L824.724 74.8497L825.055 80.8425L827.461 86.7474L827.523 88.3423L824.625 91.9192L823.692 91.6717L822.893 93.9139L822.144 93.6721L821.06 94.5584L820.517 96.2111L818.736 95.9016L818.109 96.4968L816.943 95.2766L815.539 95.7545L814.159 94.3319L815.469 91.7013L815.462 89.9945L818.002 89.0394L816.973 88.8047L816.382 86.6674L814.381 86.894L812.808 83.3804L808.571 83.0641L808.131 82.2044L806.81 82.548L806.89 80.4311L802.73 80.0929L801.211 78.9116L799.614 79.1497L799.679 81.5447L798.723 82.9934L799.451 83.8651L797.047 83.6681L797.329 86.5229L792.638 87.9202L791.121 87.6398L789.504 88.2668L788.227 87.5699L787.002 90.8659L785.45 90.5861L785.785 91.4747L784.772 92.0178L784.896 92.7129L783.366 93.4361L781.194 93.4126L781.302 95.6493L782.613 97.7854L782.395 99.7288L783.733 99.8959L784.372 101.6L788.799 101.167L791.194 99.9772L793.081 103.057L790.251 104.781L787.551 104.474L783.757 106.996L781.05 106.949L775.343 109.334L772.427 109.446L762.95 104.804L760.465 106.364L758.06 109.995L750.595 107.996L741.368 107.583L739.085 106.22L735.638 102.004L731.546 99.339L730.789 96.9276L731.539 92.1107L729.892 90.4354L725.769 89.1575L721.282 90.2446L719.945 87.8315L718.903 87.5313L715.033 88.8023L712.854 88.7111L710.56 91.5659L709.287 92.1767L707.17 86.493L705.124 85.2678L702.761 84.921L700.055 86.1165L696.446 91.95L693.258 93.5744L690.055 97.0957L688.61 97.3712L685.12 96.3505L681.704 98.9412L681.656 101.031L680.982 101.836L674.73 101.758L672.835 102.368L670.753 105.193L669.614 111.306L666.43 113.624L663.941 113.468L659.545 110.555L657.083 110.984L653.315 114.531L645.202 116.961L643.2 116.57L638.755 114.256L631.215 114.724L626.002 113.435L623.74 114.973L622.703 118.829L621.081 119.89L617.458 118.513L613.09 118.314L611.032 116.767L609.553 112.65L610.869 109.596L610.612 107.43L608.262 103.155L604.819 100.159L602.517 99.5229L597.336 99.5635L589.372 102.554L587.867 102.249L586.115 100.444L583.269 99.9046L581.747 100.701L579.64 108.422L576.488 110.923L574.71 113.775L570.575 115.71L567.779 116.056L563.068 117.812L561.136 119.471L550.942 120.842L543.915 124.838L539.465 125.003L534.834 123.497L532.665 119.362L529.183 118.089L526.3 113.714L524.185 112.042L524.866 110.81L528.664 112.617L533.647 110.139L535.669 109.951L536.215 110.898L537.736 110.889L537.057 110.129L538.294 108.281L539.668 107.486L540.423 110.043L541.59 107.421L539.721 106.285L538.84 102.306L536.096 101.148L535.994 100.228L539.713 96.262L541.746 95.5606L542.883 94.1104L541.484 94.9841L539.514 95.142L537.065 98.0925L534.616 98.109L527.85 95.8389L526.636 97.0913L527.091 98.3832L519.561 104.941L515.108 104.486L515.088 101.289L510.159 99.0378L508.814 103.137L508.789 105.554L503.113 104.581L500.116 106.939L500.878 108.333L500.242 110.308L496.982 111.909L493.754 114.646L490.878 115.858L487.58 119.198L485.774 119.606L485.263 119.005L482.087 121.598L481.732 123.392L483.063 126.903L485.704 126.638L488.391 124.042L489.967 125.337L490.71 124.877L492.099 127.015L490.961 129.918L489.672 131.314L489.276 133.342L488.823 132.652L488.305 133.062L487.799 131.944L483.057 133.02L481.68 130.146L482.058 132.398L484.816 134.875L485.562 137.062L485.608 138.584L485.08 138.714L485.802 141.122L482.7 142.714L483.11 143.958L480.406 145.026L479.725 146.723L478.371 147.926L473.6 148.665L470.594 144.736L468.726 144.986L462.035 140.635L461.46 141.058L457.61 148.672L460.288 147.506L461.142 148.381L464.73 149.511L466.227 151.654L466.78 150.954L468.518 151.84L468.545 153.052L466.789 154.494L465.403 157.007L460.487 158.132L459.776 159.126L460.102 160.675L458.11 162.108L458.745 162.471L457.527 164.44L452.108 167.564L452.059 169.012L449.206 169.155L446.603 170.654L441.188 169.521L436.985 169.717L433.875 168.714L432.05 166.458L429.336 166.158L427.193 167.57L420.617 167.579L417.574 169.973L415.786 169.16L414.216 169.317L410.403 172.857L405.799 174.041L403.171 175.875L402.93 173.069L400.82 172.168L400.355 171.233L400.775 170.006L399.077 167.59L395.791 167.046L390.719 169.3L387.316 169.04L386.293 167.417L381.01 165.627L379.322 165.615L381.862 158.56L382.1 155.416L381.6 154.254L385.775 144.984L389.563 143.675L388.932 142.371L380.226 144.419L376.846 144.307L373.142 140.992L369.635 138.968L366.139 138.019L361.304 141.994L357.403 142.351L355.589 141.843L349.536 145.129L348.667 143.232L345.136 141.867L342.532 141.992L340.065 140.481L337.694 140.904L337.603 140.138L334.79 139.179L333.943 137.832L332.873 137.752L326.273 139.902L321.789 142.796L320.834 142.246L321.914 143.338L322.608 145.714L321.918 150.503L322.498 151.966L323.965 152.859L323.563 155.003L326.305 154.64L326.556 157.033L325.495 157.973L325.385 159.521L326.603 159.726L326.836 160.548L324.867 162.594L323.09 163.35L320.213 162.782L316.872 163.744L315.622 168.031L314.818 168.872L312.9 169.771L312.083 169.111L307.506 169.992L307.895 177.976L306.922 182.337L301.361 182.793L301.072 182.088L299.056 183.019L300.467 183.65L299.755 186.381L297.824 186.862L299.135 190.491L296.516 193.011L293.384 193.382L293.609 194.202L289.793 197.389L290.206 199.852L288.47 204.225L288.448 206.583L290.844 206.259L293.274 204.788L293.558 203.822L294.804 204.253L295.781 203.415L302.437 205.403L305.259 203.922L308.28 204.272L311.188 203.23L311.28 203.65L314.957 203.084L315.501 203.561L316.961 202.756L318.216 203.153L321.245 201.557L325.023 201.581L328.467 199.539L329.955 197.379L330.25 198.037L331.017 197.364L331.833 197.496L332.445 198.534L336.799 198.838L337.037 201.702L339.626 201.284L341.753 202.57L342.653 207.049L341.737 208.788L343.472 208.935L345.643 210.421L344.834 212.401L342.689 213.783L342.713 214.501L343.947 214.818L340.412 218.401L336.727 217.579L334.321 218.551L329.275 219.294L329.058 221.205L330.303 221.394L331.08 224.374L329.588 226.749L329.077 229.346L328.517 229.95L327.314 229.691L324.986 232.317L318.838 232.063L318.701 233.529L317.934 234.342L316.302 233.724L314.351 234.304L310.812 234.04L307.729 236.439L311.163 244.047L310.571 245.791L311.034 247.838L309.474 251.193L309.707 252.742L312.305 256.191L308.389 258.544L307.672 261.433L303.64 262.733L302.358 265.709L298.028 267.479L297.144 269.067L288.887 275.474L286.812 279.805L286.755 282.381L284.694 282.365L283.673 284.593L276.505 288.673L277.564 290.775L281.922 291.407L279.266 295.463L276.294 296.616L275.96 298.392L272.535 299.97L268.587 304.761L266.202 305.011L265.567 307.121L257.235 310.267L256.172 311.358L252.655 311.801L248.704 314.426L247.073 316.511L245.105 316.678L245.392 319.131L247.037 322.028L246.362 324.354L245.426 325.15L242.434 325.812L240.523 324.691L239.535 325.763L237.151 326.29L234.911 328.673L233.293 329.132L234.794 330.349L234.068 331.738L234.389 332.728L233.475 333.071L232.8 334.583L230.38 335.115L229.787 336.14L232.561 339.464L235.191 340.043L235.927 341.825L238.429 343.16L236.035 344.584L231.36 349.448L228.021 349.384L225.324 350.355L219.694 353.963L217.953 356.229L213.809 365.08L211.691 367.192L206.817 370.139L204.469 370.561L201.187 369.734L199.051 370.068L192.824 374.322L181.615 378.378L175.867 379.505L171.466 381.9L168.69 378.164L163.013 383.675L155.45 394.113L153.255 396.229L148.938 398.671L149.936 401.864L156.821 411.313L158.912 416.04L157.479 433.736L152.209 442.161L151.069 446.119L151.482 449.816L148.423 451.385L149.594 456.31L156.973 462.072L154.867 466.668L155.047 468.668L150.735 472.084L150.567 473.696L151.026 473.863L148.197 476.563L142.267 478.957L139.783 479.63L139.002 479.239L137.227 480.335L135.103 482.681L136.235 484.641L134.015 488.082L129.7 488.415L128.607 489.094L129.762 489.076L129.886 491.369L127.622 492.451L126.282 491.838L124.282 494.051L123.777 495.567L120.369 497.714L115.333 499.366L106.571 504.892L101.864 506.526L100.94 507.966L97.846 510.207L98.2591 511.771L97.2601 513.08L86.4839 522.936L84.8632 525.777L82.1927 527.184L81.7002 528.454L80.27 529.015L78.5642 531.474L77.9932 531.754L77.5151 531.172L76.0948 531.97L76.4332 532.38L75.0963 534.815L69.8467 538.505L69.6808 540.477L65.4188 543.051L64.1301 543.1L61.7848 545.961L57.383 548.692L53.2974 552.183L51.8391 554.863L48.2845 558.292L62.713 572.404L60.189 575.092L61.7164 576.259L58.6593 580.361L56.8703 578.885L48.9504 588.596L44.0451 601.405L36.5144 608.59L36.7196 611.111L37.8016 612.146L37.0205 613.998L40.1365 616.746L40.7667 618.361L40.521 619.742L37.0692 623.666L36.8575 625.393L33.7229 630.819L44.273 634.151L46.788 638.51L47.7727 638.45L49.3299 639.684L49.068 638.273L55.8516 643.365L60.5298 648.431L62.1235 647.932L62.8295 648.339L63.546 647.46L64.1093 649.623L65.597 650.966L66.8569 653.615L64.2147 656.41L63.2718 658.226L63.0369 660.945L61.7364 662.189L61.0985 662.089L60.4471 664.208L56.8588 666.01L57.3338 666.459L56.6393 667.401L57.2688 668.426L56.3347 669.016L56.2892 670.662L55.6006 670.848L52.9028 674.812L53.1785 675.495L52.5449 676.525L51.2059 677.868L51.0079 680.006L51.5001 680.474L50.8766 682.291L51.8204 683.963L50.8113 685.415L51.1473 686.136L49.41 685.956L45.7597 690.386L46.6013 691.283L46.0332 693.229L49.2347 695.999L48.1055 696.896L49.8318 698.995L51.2854 699.582L50.6618 700.125L52.0526 702.513L51.5198 704.155L52.6531 705.044L51.5063 707.118L47.7707 710.809L47.1539 710.22L45.4662 711.817L41.2821 707.521L36.7464 709.068L36.5867 710.139L34.794 709.943L33.5632 708.122L31.2334 709.999L28.1795 714.65L24.2877 711.407L21.7397 713.82L18.909 714.383L18.5426 715.081L17.8226 714.807L17.9427 715.711L16.762 715.737L16.8201 716.519L15.8279 716.849L16.0209 718.055L14.2561 719.587L11.5714 718.472L10.7101 719.035L11.7609 720.766L11.5184 721.979L7.26916 721.059L5.45287 722.661L4.17102 725.874L5.47537 727.71L3.04049 729.089L2.44455 730.233L8.40757 733.059L8.71873 733.92L10.7446 734.403L12.1859 737.106L10.7795 739.028L11.193 739.371L10.0384 742.121L8.80994 740.807L8.13196 741.014L7.55862 744.157L2.6219 753.906L3.23446 757.023L0 759.53L0.294996 761.161L1.62542 760.234L2.90463 760.74L4.24023 759.674L5.33039 759.862L6.50049 759.168L8.13026 757.241L8.62208 754.711L9.71118 754.902L11.9326 753.995L14.784 755.261L18.4649 754.672L21.2419 755.893L22.6631 755.868L23.6637 756.339L23.5999 756.979L24.0867 756.651L24.8315 758.634L26.0509 756.229L27.0446 755.426L27.8568 756.081L28.649 755.068L28.9324 752.841L30.1012 750.926L37.177 752.059L42.4552 750.652L44.5427 754.335L51.3106 754.817L53.806 755.922L56.3964 755.346L58.0999 752.792L59.0334 753.823L60.2078 751.494L66.4317 748.288L68.1986 747.997L71.7572 745.124L72.7449 744.108L71.9525 740.029L72.2081 737.775L74.6833 736.034L75.5798 736.398L77.8724 732.609L80.0838 732.145L81.9708 729.472L83.1978 729.345L83.104 728.575L85.0442 727.767L86.8764 725.966L89.6921 726.836L90.3553 726.626L90.235 725.744L91.7296 726.616L93.1512 724.689L96.9604 722.725L100.296 721.843L105.827 717.478L110.701 708.949L110.432 706.184L109.268 705.599L110.536 703.398L108.135 704.078L105.932 703.473L105.591 701.901L106.425 700.201L105.883 699.606L102.322 703.513L102.882 704.003L100.777 705.104L100.836 705.646L97.1135 707.264L95.0412 705.458L95.5159 704.152L91.8231 700.692L89.6431 695.863L87.9912 693.733L88.1219 691.661L88.7133 691.683L89.2971 690.343L91.5226 689.694L92.7973 687.9L91.4259 686.165L91.9193 685.181L91.3276 685.14L91.654 684.06L90.9244 683.554L91.565 682.702L82.3583 678.176L92.7977 656.181L118.485 636.562L146.734 631.083L175.937 612.703L226.777 613.625L270.26 625.94L264.28 643.279L264.291 644.662L265.682 645.967L265.374 648.028L263.312 649.894L261.389 652.934L257.652 653.412L254.758 655.908L254.625 659.196L254.959 660.782L257.144 663.339L258.842 666.87L258.778 668.696L262.551 668.606L263.364 670.385L262.872 671.477L263.794 674.479L265.876 674.159L268.583 676.37L269.866 676.507L273.136 680.784L272.457 682.426L273.037 683.481L274.541 683.652L276.061 685.785L277.396 686.147L278.475 688.149L280.657 686.95L281.729 687.505L283.963 692.535L282.078 695.398L282.479 698.864L280.688 702.006L280.988 703.86L279.916 705.248L276.11 707.025L275.284 710.388L273.253 713.292L270.303 714.233L270.422 718.4L266.764 722.607L265.945 725.291L264.786 726.788L267.613 737.24L265.852 738.61L265.403 741.227L261.091 745.674L261.381 747.126L260.638 749.716L261.993 752.628L262.597 756.664L263.333 758.015L265.936 757.643L268.4 760.93L269.509 760.099L275.608 759.261L276.804 759.701L277.535 761.344L279.842 762.144L285.392 762.8L286.682 762.431L289.428 763.824L292.015 762.607L294.896 763.371L292.77 768.023L293.399 770.499L290.366 775.662L289.362 776.384L292.383 780.932L291.212 783.664L292.354 786.092L291.085 786.314L288.758 788.112L286.084 796.328L287.229 796.973L288.178 798.611L292.19 800.16L292.344 798.786L293.291 797.711L297.926 796.508L298.3 795.126L302.597 789.942L305.534 789.603L306.574 790.378L305.865 794.147L308.639 796.573L310.579 796.128L311.948 800.622L314.561 805.717L315.698 805.392L317.101 807.939L320.319 810.638L321.463 817.421L326.335 819.993L327.833 818.94L329.447 820.705L329.968 825.28L332.37 826.799L333.533 829L332.863 830.213L329.324 831.638L328.806 833.541L331.598 837.441L337.849 839.956L338.2 844.197L337.315 847.465L339.479 851.373L339.816 854.327L342.739 857.752L345.074 858.755L346.296 860.619L346.21 864.787L348.499 866.645L350.084 867.006L350.028 869.22L351.172 871.558L355.965 875.76L354.919 877.482L356.26 879.243L356.587 881.831L357.748 883.276L360.143 883.771L363.156 883.202L364.58 881.455L367.476 879.577L368.386 877.206L374.117 874.224L376.22 874.492L377.43 875.331L377.45 876.775L376.632 877.679L380.921 881.633L382.062 881.287L383.765 882.931L385.694 883.547L387.533 882.831L388.883 881.553L387.893 878.271L388.666 875.919L389.726 875.533L390.524 873.812L391.713 873.63L393.534 872.131L393.747 869.898L396.694 869.467L397.473 868.449L401.073 869.374L404.088 867.934L405.215 870.032L406.383 870.19L410.957 864.837L412.648 864.49L415.268 857.72L418.129 854.935L420.436 857.05L424.959 857.335L425.518 859.546L427.334 860.196L429.465 860.057L433.707 857.917L435.654 859.571L437.505 860L437.503 861.56L438.989 863.325L440.506 862.948L442.999 864.708L443.521 864.48L445.603 866.43L446.836 866.116L450.198 862.665L450.426 860.995L451.653 859.606L452.828 860.705L454.49 860.908L457.645 859.308L458.069 858.167L459.583 857.821L461.863 855.641L464.966 850.503L468.726 850.133L469.45 848.726L472.833 849.509L474.448 848.584L473.403 843.436L475.367 841.136L478.421 839.532L480.294 839.587L482.089 836.538L484.696 838.555L487.985 836.414L488.447 837.493L491.083 839.223L493.421 839.056L494.349 839.924L495.687 839.01L496.894 836.258L495.3 830.308L496.618 826.864L498.004 825.6L501.71 825.993L503.733 825.076L506.898 825.846L508.044 829.532L507.865 831.119L510.03 832.873L516.814 833.399L519.698 832.025L525.932 833.051L529.058 831.274L530.358 831.162L531.386 830.128L533.659 830.538L534.907 831.372L535.622 833.152L537.651 835.332L538.047 838.161L538.888 838.993L541.801 840.126L544.451 840.127L547.905 843.028L547.106 849.01L548.341 849.91L548.778 852.031L549.921 852.255L551.216 854.042L555.781 853.96L556.337 851.999L559.135 849.018L559.735 846.24L566.457 848.003L568.735 850.745L573.187 853.517L574.177 855.76L575.906 857.062L577.74 856.137L579.15 854.379L582.856 852.606L585.88 853.511L587.527 854.978L594.331 855.366L596.073 857.232L596.779 855.953L598.883 855.549L600.126 852.499L597.426 848.186L598.04 843.36L600.151 842.596L600.702 840.225L599.468 838.508L600.372 838.028L600.289 836.997L601.613 835.817L601.519 834.1L600.288 832.518L600.243 831.353L605.373 829.189L606.133 827.016L608.536 824.455L610.006 820.895L613.225 821.368L615.909 820.793L617.489 821.33L622.755 820.592L625.205 821.287L631.383 819.755L635.124 821.351L636.639 819.565L638.871 813.974L642.41 814.083L642.671 812.319L641.893 810.964L643.999 808.312L642.247 805.364L645.421 801.85L649.595 799.548L645.99 790.966L646.206 788.899L645.299 788.074L645.571 785.653L647.622 782.837L647.774 778.904L649.123 776.344L649.392 773.813L651.983 774.226L653.879 773.161L655.498 773.605L660.155 771.475L664.084 771.722L668.878 770.382L669.729 769.212L672.342 768.922L672.841 767.394L674.083 766.289L674.586 760.441L677.638 758.208L683.637 757.505L685.39 755.757L687.059 752.608L686.388 752.224L686.363 749.739L685.309 748.391L685.352 745.868L685.729 744.62L687.17 743.382L688.07 740.63L690.164 739.338L690.234 736.93L686.419 732.908L685.824 727.598L683.367 723.622L681.915 717.027L678.304 716.063L677.353 715.453L676.168 712.549L674.558 712.562L673.368 710.232L672.943 706.443L670.276 706.46L670.192 705.126L665.941 704.514L664.339 703.256L663.652 701.402L665.415 700.73L665.375 698.689L669.926 695.479L671.475 692.784L674.007 692.106L675.491 689.899L676.286 687.244L677.63 686.045L678.784 685.939L681.505 682.761L684.453 682.865L688.957 685.427L694.416 684.744L699.271 682.001L700.618 682.541L704.761 679.357L704.52 677.857L705.671 676.207L705.586 674.651L708.84 671.593L708.198 671.473L708.356 670.418L707.76 669.855L708.825 668.67L708.504 667.951L712.074 665.27L713.946 665.62L716.641 665.092L717.547 662.516L720.652 662.731L719.728 661.51L721.588 660.068L721.324 657.682L719.983 656.157L720.929 654.549L723.835 653.263L727.336 654.727L729.058 652.231L730.73 651.627L732.25 649.994L736.276 648.638L736.915 645.52L738.101 644.533L736.668 642.857L737.648 640.965L737.161 638.715L735.268 636.422L734.309 637.328L733.354 637.135L728.789 634.571L731.918 631.79L731.902 630.344L734.586 626.531L736.92 627.537L740.193 626.593L748.635 619.375L749.665 616.964L753.155 614.717L755.767 614.172L756.925 615.224L760.12 614.332L761.284 614.874L762.22 613.522L764.181 613.439L766.113 611.629L768.826 611.617L774.062 609.345L775.52 609.11L775.77 609.873L777.766 609.373L779.107 610.221L780.087 611.888L779.977 613.163L782.848 615.268L782.974 617.792L784.084 618.142L783.47 620.482L781.456 622.494L782.464 625.377L781.249 627.742L781.861 629.417L783.172 630.127L784.824 632.924L783.181 636.04L785.717 640.093L782.488 644.284L784.261 647.284L784.355 652.603L785.424 655.216L783.686 657.128L782.714 659.428L783.644 662.157L783.254 666.879L783.9 668.262L782.357 670.688L780.87 671.213L780.304 673.926L777.142 674.727L776.42 676.477L776.539 678.968L775.704 679.913L776.146 681.695L773.799 682.56L772.149 684.331L774.103 687.269L774.825 690.057L779.031 695.197L780.94 699.986L778.632 701.055L778.444 702.585L776.69 704.338L777.393 706.728L783.509 708.688L784.275 712.809L785.425 714.23L792.342 715.689L799.45 719.742L801.496 718.975L804.856 720.592L806.093 726.943L807.365 729.868L811.463 732.487L811.604 735.156L814.619 736.152L816.541 739.344L817.727 745.049L819.156 746.25L821.057 745.702L821.935 746.256L822.571 747.468L822.247 748.557L826.952 749.118L827.126 749.902L826.013 750.04L825.955 751.715L823.791 753.354L823.688 754.769L824.656 754.902L828.991 759.292L829.657 764.377L840.822 763.548L843.549 766.976L843.986 768.442L847.911 770.189L850.795 769.488L851.529 771.711L852.906 773.257L856.127 773.279L861.568 775.447L864.778 769.566L870.425 764.082L875.946 773.481L878.516 773.853L883.136 776.833L888.367 776.594L890.322 773.614L893.212 775.409L898.984 781.963L901.69 783.29L903.278 785.181L904.714 785.232L905.488 791.6L902.238 797.527L899.223 796.231L897.334 798.421L899.514 799.663L898.654 801.127L897.817 800.654L896.916 804.883L894.582 807.957L890.283 809.57L886.277 815.836L884.026 824.457L885.57 824.679L886.069 823.182L887.115 823.102L891.628 824.122L892.756 823.598L894.727 825.212L898.22 824.938L899.181 826.266L900.691 826.658L900.963 827.818L901.773 827.904L902.002 829.654L903.94 831.8L907.395 834.864L908.657 835.16L909.771 837.353L912.867 839.155L917.692 838.095L918.626 840.011L919.235 843.86L917.642 847.88L917.585 850.692L921.999 856.761L924.136 856.756L927.21 862.268L927.463 864.435L926.401 866.74L927.219 868.347L928.207 868.58L929.53 871.251L930.224 878.266L931.24 879.638L932.812 878.262L933.825 879.786L929.837 882.513L924.117 891.002L923.468 896.342L926.07 894.642L928.743 895.014L929.974 892.46L931.884 891.435L934.919 890.455L936.278 890.961L937.242 890.479L937.223 891.289L939.046 892.451L938.872 893.656L941.535 895.477L942.854 895.166L943.468 893.537L945.182 893.943L946.747 892.682L948.101 893.838L947.753 894.131L950.126 894.303L948.958 900.158L950.422 899.753L952.237 900.965L956.326 902L957.82 900.23L960.719 900.693L961.676 899.708L960.574 898.95L962.737 894.066L962.066 891.551L962.985 891.092L963.603 889.07L964.597 889.025L965.093 887.664L966.772 886.478L965.979 886.038L967.101 885.472L966.267 881.766L967.002 879.673L967.685 879.327L968.026 876.808L968.938 876.052L971.649 875.975L973.224 873.097L975.227 871.59L975.733 869.963L975.041 869.13L975.262 868.435L976.415 868.54L977.511 866.652L978.652 866.229L978.228 865.135L978.713 864.526L978.039 863.823L974.943 865.14L974.832 859.649L973.602 859.006L972.093 860.004L972.213 858.972L969.361 857.353L969.623 855.334L966.243 855.569L966.351 854.817L964.254 852.36L960.233 852.812L959.195 851.818L956.958 851.967L957.93 847.99L957.087 846.831L955.149 846.012L954.722 844.982L956.261 842.614L955.273 837.385L949.045 834.665L947.473 832.947L947.311 831.818L947.942 832.545L949.606 831.817L949.441 828.349L953.206 828.434L954.395 827.132L954.46 824.988L955.042 824.602L956.559 825.102L957.941 824.246L958.062 822.79L959.802 822.396L958.568 819.162L957.953 811.869L953.745 807.344L953.283 806.004L953.887 802.61L956.187 799.977L956.286 796.97L957.993 795.629L959.896 795.482L963.209 792.797L964.896 792.784L966.602 791.247L969.784 792.019L975.007 790.449L975.612 785.106L977.212 783.826L978.905 780.076L973.56 765.989L979.018 762.602L982.079 762.089L983.62 759.707L985.963 758.465L988.865 758.419L990.548 753.878L992.921 750.034L994.886 749.29L997.622 746.771L999.797 746.043L1001.27 742.144L1004 741.631L1007.4 742.857L1008.21 742.383L1009.49 740.229L1011.71 738.302L1011.75 736.148L1012.76 734.775L1011.97 733.8L1011.77 731.766L1012.68 730.621L1014.07 725.066L1015.52 724.157L1017.85 723.991L1019.29 722.337L1019.63 719.42L1020.55 718.019L1019.94 715.688L1024.25 713.772L1027.71 714.299L1028.51 713.574L1028.92 708.685L1028.44 707.428L1029.44 705.76L1028.69 703.555L1029.98 700.79L1029.15 698.737L1031.19 697.44L1031.91 695.817L1031.76 693.311L1034.73 691.64L1035.82 688.424L1039.9 684.899L1038.87 679.321L1039.96 677.022L1043.09 675.516L1043.16 673.024L1044.42 671.081L1042.73 669.486L1042.16 667.157L1044.58 663.803L1043.4 661.309L1043.92 660.057L1043.47 658.373L1039.18 657.258L1037.99 653.394L1037.15 652.852L1037.48 651.021L1036.85 650.147L1037.66 649.589L1037.8 647.67L1038.51 647.44L1039.74 645.005L1037.87 642.988L1037.08 640.56L1039.01 637.531L1038.03 636.71L1039.17 635.999L1038.46 631.828L1037.44 631.448L1036.93 629.401L1034.87 629.638L1033.26 628.956L1032.64 627.235L1028.44 623.187L1028.07 617.041L1029.72 615.87L1034.09 614.965L1037.81 610.286L1036.7 609.684L1036.33 608.333L1037.56 602.355L1036.57 600.321L1037.98 598.594L1038.02 596.738L1039.44 594.283L1041.67 594.188L1046.21 592.494L1048.1 591.059L1056.21 590.211L1056.83 591.207L1060.41 590.455L1061.81 590.997L1062.87 589.574L1064.52 588.712L1065.97 590.603L1067.54 591.144L1067.5 593.218L1066.4 593.982L1066.02 595.607L1068.48 599.881L1071.25 600.913L1072.67 605.126L1074 605.361L1075.14 606.659L1079.5 607.919L1083.4 603.749L1083.39 601.05L1084.07 599.396L1083.58 598.03L1086.54 593.879L1093.07 590.519L1094.15 589.146L1095.72 588.91L1095.96 589.403L1094.94 590.444L1095.45 593.823L1094.93 599.798L1091.2 600.01L1091.39 602.003L1095.5 601.769L1096.35 606.752L1096.08 608.049L1094.35 609.658L1094.82 619.093L1093.69 621.698L1093.99 622.966L1092.87 628.83L1093.31 630.873L1095.14 632.903L1096.73 638.992L1096.63 641.942L1097.42 643.397L1096.16 645.616L1094.97 645.76L1095.6 647.217L1094.94 649.127L1099.56 651.564L1100.68 651.328L1101.78 653.117L1105.98 654.413L1107.25 658.154L1109.78 660.27L1110.69 666.975L1111.41 667.46L1111.55 668.906L1112.32 668.787L1112.88 671.282L1117.48 677.811L1122.59 682.502L1124.35 680.732L1125.89 680.768L1126.58 682.396L1129.95 683.923L1131.52 685.625L1133.17 686.122L1135.18 685.791L1136.04 686.482L1138.07 685.473L1141.58 686.018L1144.18 689.287L1146.24 688.95L1149.27 689.851L1151.55 689.497L1153.9 688.225L1154.05 687.153L1157.74 685.078L1159.88 685.361L1160.36 683.593L1162.38 682.145L1163.72 683.64L1163.82 684.909L1165.64 686.314L1167.56 686.371L1170.21 687.718L1172.62 687.228L1174.11 686.768L1175.25 680.717L1177.21 679.092L1177.7 677.44L1177.67 674.644L1175.23 673.777L1175 672.905L1175.38 671.523L1178.17 668.749L1176.75 665.095L1181.11 660.488L1181.85 660.944L1183.17 660.088L1184.38 661.921L1187.57 663.387L1189.93 666.603L1193.83 667.735L1196.05 665.071L1201.52 663.673L1203.75 661.599L1205.57 660.822L1206.54 661.05L1209.77 658.179L1211.02 655.931L1212.54 655.917L1213.37 655.236L1215.1 655.58L1216.17 654.388L1218.36 655.13L1218.67 654.526L1219.54 654.834L1220.05 654.317L1220.39 654.831L1221.27 654.267L1222.12 655.302L1225.99 652.586L1226.95 650.296L1231.59 648.787L1234.18 646.911L1235.09 647.503L1237.33 651.69L1238.15 651.142L1239.22 651.551L1239.92 653.66L1241.77 652.746L1241.42 651.124L1242.82 649.671L1248.55 647.62L1250.16 647.789L1250.52 648.091L1249.46 650.201L1252.21 654.666L1258.64 660.159L1261.36 659.8L1262.16 660.386L1261.6 662.42L1262.03 664.428L1258.75 668.118L1258.37 670.602L1257.03 673.081L1261.63 677.27L1263.31 677.585L1263.21 679.103L1262.12 680.247L1263.54 681.857L1263.53 682.855L1262.07 684.762L1260.71 685.258L1262.02 690.393L1266.07 692.318L1273.05 693.968L1276.91 697.122L1280.64 699.043L1281.41 702.496L1280.82 703.065L1281.65 703.619L1282.24 707.007L1281.13 707.664L1281.12 708.912L1279.97 710.181L1280.07 712.642L1276.97 715.41L1281.6 717.56L1283 719.725L1285.42 721.104L1288.62 717.343L1290.93 716.277L1295.62 715.93L1297.39 717.222L1300.45 717.382L1301.8 718.098L1303.47 717.279L1304.62 717.604L1308.88 715.063L1310.42 710.913L1317.94 704.129L1318.43 702.469L1317.02 698.692L1314.32 696.497L1314.35 695.013L1313.68 694.051L1314.05 691.573L1311.55 690.193L1312.22 688.419L1311.48 686.831L1308.78 685.582L1306.69 683.757L1306.66 681.46L1299.72 677.18L1298.59 673.006L1295.9 668.325L1296.39 664.449L1297.41 662.698L1297.17 659.849L1298.63 659.757L1300.44 657.65L1303.62 655.972L1302.65 651.921L1303.42 649.946L1303.08 648.485L1307.82 644.488L1309.39 644.171L1311.95 645.083L1313.88 643.938L1314.52 642.467L1313.93 636.328L1315.37 634.805L1313.62 631.273L1312.4 631.045L1309.95 632.436L1309.42 631.8L1309.27 627.742L1308.36 627.148L1307.96 625.411L1304.81 625.062L1303.62 623.857L1300.53 625.002L1299.91 626.449L1297 625.428L1296.59 626.606L1295.3 627.048L1294.76 628.573L1291.63 627.984L1288.33 628.691L1288.34 626.644L1287.39 625.472L1283.4 626.523L1282.5 625.814L1281.41 623.736L1281.49 620.91L1280.87 619.726L1279.72 620.256L1276.38 618.822L1275.52 616.956L1276.56 616.044L1276.36 614.578L1277.03 613.288L1277.95 612.934L1277.84 612.191L1279.69 610.873L1280.3 608.945L1279.38 607.543L1279.37 605.523L1276.83 602.884L1276.67 601.979L1278.44 598.453L1277.43 597.328L1277.29 596.016L1278.62 593.114L1277.38 591.997L1276.49 588.378L1277.92 588.153L1279.39 586.879L1280.16 582.66L1279.04 579.805L1280.01 578.571L1277.54 576.784L1277 574.593L1277.9 572.972L1282.47 572.22L1283.01 570.969L1284.75 569.737L1285.69 566.18L1289.01 564.159L1289.97 562.516L1288.2 560.616L1287.87 558.889L1293.18 557.879L1294.74 555.445L1294.89 552.511L1293.6 550.568L1293.79 548.624L1294.93 547.155L1294.17 544.958L1295.26 542.75L1296.61 542.77L1298.67 544.382L1303.16 545.303L1305.88 544.172L1306.2 542.748L1308.15 542.761L1310.57 541.009L1314.03 540.499L1320.48 536.754L1323.51 535.863L1323.7 537.131L1327.76 538.205L1330.55 539.939L1333.3 534.415L1338.04 531.595L1338.63 535.359L1339.76 537.57L1344.22 542.986L1340.88 547.314L1338.84 551.422L1340.16 558.941L1342.68 560.646L1345.7 557.971L1347.42 557.724L1349.73 560.038L1353.07 561.03L1353.72 563.638L1355.75 566.25L1355.91 568.047L1355.26 569.389L1355.78 570.285L1359.55 570.533L1360.57 571.774L1362.8 571.078L1364.96 569.488L1366.55 570.533L1368.93 573.569L1372.69 570.534L1373.21 567.609L1376.96 567.777L1380.62 569.083L1381.78 570.283L1383.33 570.253L1387.32 573.029L1391.06 570.602L1393.94 569.679L1398.74 574.207L1399.7 575.987L1404.74 579.027L1406.54 576.368L1406.71 574.207L1410.57 573.582L1410.45 571.005L1412.58 566.913L1411.38 564.512L1411.57 562.716L1413.4 559.037L1414.73 557.794L1414.29 556.256L1415.66 552.347L1414.41 551.17L1415.53 548.353L1414.62 545.313L1416.71 542.597L1417 540.643L1415.96 540.753L1414.56 539.721L1407.79 532.638L1402.63 528.913L1401.81 529.771L1394.55 530.255L1391.09 531.729L1388.96 530.934L1388.2 530.131L1388.79 529.168L1388.37 526.878L1387.15 525.183L1387.06 523.627L1385.74 522.601L1385.42 520.882L1385.98 519.553L1385.4 516.75L1385.9 515.171L1383.67 510.416L1382.56 509.412L1383.11 508.063L1384.38 508.169L1386.2 507.147L1389.28 499.807L1391.37 499.818L1393.25 498.212L1393.03 496.758L1393.88 495.722L1394.1 493.629L1392.76 492.979L1391.17 490.758L1391.06 489.519L1388.29 487.486L1388.5 486.963L1391.87 484.88L1392.28 483.816L1399.34 478.43L1401.27 478.717L1401.57 477.886L1401.99 474.035L1400.89 468.762L1398.99 466.847L1398.77 465.176L1395.34 462.312L1396.56 461.785L1396.59 459.596L1397.47 458.444L1400.42 458.054L1403.1 456.634L1406.26 449.712L1405.67 447.104L1407.12 445.864L1405.92 443.304L1407.01 441.243L1407.94 441.539L1409.02 440.735L1409 439.148L1408.19 438.316L1409.72 435.38L1410.68 434.915L1409.49 428.84L1410.5 423.924L1409.87 420.234L1408.45 418.795L1411.7 414.258L1411.73 411.155L1412.52 410.106L1412.78 406.87L1415.17 404.665L1414.88 403.23L1415.83 399.76L1414.89 397.42L1416.15 394.547L1412.04 393.076L1409.74 390.328L1406.02 388.625L1405.57 387.707L1403.6 387.963L1400.6 387.139L1399.95 386.341L1397.48 386.301L1396.48 385.695L1395.12 384.128L1395.41 381.953L1396.7 379.419L1396.55 377.374L1394.64 375.424L1392.15 374.219L1388.92 370.499L1387.71 367.651L1384.9 366.118L1383.44 366.367L1379.51 370.583L1374.18 369.816L1371.53 371.073L1370.99 374.028L1369.5 374.826L1369.72 376.154L1367.79 378.808L1366.22 382.546L1365.7 387.211L1364.67 388.024L1359.93 388.921L1359.37 390.613L1359.69 391.983L1358.92 393.407L1362.37 397.643L1362.02 400.26L1357.25 400.497L1356.03 402.629L1354.2 401.129L1346.66 398.605L1338.45 397.454L1338.89 403.137L1337.34 404.554L1336.17 410.926L1333.8 413.51L1334.39 416.108L1336.65 418.611L1335.75 422.64L1336 424.854L1335.4 425.52L1335.97 426.944L1331.78 426.495L1326.96 427.705L1325.46 426.793L1323.79 426.876L1323.02 428.444L1320.61 430.246L1320.15 431.83L1316.95 432.667L1316.1 434.028L1314.11 433.879L1312.46 435.297L1311.58 434.182L1309.24 433.689L1306.84 435.515L1301.74 435.014L1300.76 435.515L1300.5 436.969L1296.23 438.471L1294.69 436.036L1292.02 433.681L1292.24 430.68L1290.6 429.255L1289.49 429.704L1286.7 428.916L1281.9 429.445L1279.29 428.009L1279.52 422.208L1276.55 420.533L1275.57 418.101L1273.34 417.109L1271.56 413.57L1269.5 412.223L1268.86 410.937L1265.14 412.213L1262.48 410.747L1260.2 410.578L1259.17 409.165L1257.81 408.861L1257.6 406.268L1256.38 404.472L1252.85 406.131L1251.77 406.052L1250.51 404.408L1246.46 406.073L1243.68 405.638L1238.78 403.139L1235.9 399.863L1234.03 400.205L1232.06 399.282L1230.33 397.33L1227.18 396.707L1226.03 395.802L1224.6 395.978L1226.03 393.493L1224.74 393.223L1224.8 390.089L1224.21 388.835L1224.93 388.284L1225.41 385.809L1222.91 383.026L1224.43 381.083L1224.46 378.293L1227.23 375.033L1226.77 373.936L1227.31 372.94L1229.65 370.723L1228.78 369.001L1228.55 366.025L1223.7 363.477L1222.9 361.98L1223.04 360.437L1225.92 358.549L1224.63 356.735L1221.8 356.691L1219.48 355.836L1218.61 357.834L1217.29 358.916L1213.63 359.503L1212.73 360.486L1213.23 360.62L1212.1 360.675L1211.29 359.775L1210.42 359.865L1208.17 357.355L1203.18 355.677L1201.25 353.173L1198.28 351.995L1196.1 348.914L1191.18 348.676L1189.28 349.419L1184.6 349.622L1183.71 347.743L1182.65 347.016L1175.27 346.699L1171.77 344.582L1171.35 343.538L1172.26 342.943L1171.95 341.971L1168.82 342.615L1165.89 341.329L1163.99 339.689L1163.91 338.215L1156.53 339.989L1152.42 339.267L1151.25 341.92L1148.55 343.129L1143.71 342.054L1139.43 338.362L1138.27 339.632L1135.74 340.454L1132.77 342.472L1129.88 342.445L1125.51 344.409L1124.13 343.56L1123.23 339.69L1119.52 336.833L1112.27 339.125L1110.87 340.607L1107.1 340.467L1106.96 341.814L1104.39 340.864L1102.65 344.109L1101.45 342.546L1101.57 340.924L1099.88 341.611L1099.54 342.903L1098.29 338.478L1098.47 336.887L1104.69 332.892L1111.33 327.549L1113.14 322.6L1112.99 318.545L1110.8 306.53L1109.35 301.833L1107.02 298.485L1104.39 292.503L1102.68 284.133L1103.9 277.313L1106.98 270.612L1107.62 266.582L1113.49 255.802L1116.51 247.406L1116.77 243.546L1121.52 239.465L1124.73 231.155L1132.59 225.351L1134.64 222.522L1138.17 209.962L1140.14 206.908L1145.98 200.435L1146.55 200.917L1149.39 199.88L1154.13 199.802L1157.21 198.629L1160.4 195.156L1161.41 192.401L1160.97 188.437L1157.11 186.206L1155.32 183.1L1154.46 182.997L1154.05 175.542L1152.2 169.628L1152.9 167.117L1156.45 163.438L1156.76 161.438L1152.61 159.873L1145.33 159.056L1141.2 153.136L1140.41 153.458L1139.29 156.961L1136.8 156.378L1132.68 147.451L1127.61 143.197L1126.47 141.456L1125.44 120.793L1105.73 116.46L1074.21 85.2509L1031.06 67.8582L1018.02 69.495L1009.36 68.4277L1005.88 69.9976L1005.73 69.188L1004.11 69.5562L1000.22 64.6611L998.011 63.8101L994.399 65.3841L987.769 63.3288L983.505 59.9641L980.338 58.4715L974.619 58.8354L958.215 55.1043L955.555 55.8006L947.811 60.3482L944.709 61.1513L943.055 63.2018L934.062 67.5001L932.643 68.9589L927.966 69.4636L920.23 72.4665L917.751 72.5585L914.535 70.0177L911.989 69.5616L912.231 67.0723L911.496 62.9702L909.643 60.0729L907.359 58.0709L904.231 57.6784L904.396 55.6776L906.04 54.0884L906.465 52.4782L905.536 51.6416L904.308 51.5686L904.534 50.2259L905.563 50.4877L906.579 49.7175L907.373 50.8418L908.186 49.8595L909.148 50.7862L908.203 52.5884L909.279 51.8866L911.365 51.8811L912.223 50.5742L910.206 48.3007L911.158 47.3L909.241 46.6666L903.537 47.6199L902.732 44.092L901.925 43.6385L898.929 42.5497L897.835 43.7675L896.411 44.1617L894.387 43.3569L896.637 41.051L894.225 41.1504L892.405 38.3771L889.938 38.0363L892.24 35.3602L891.105 35.0031L890.521 31.8008L887.363 33.4902L888.186 36.8577L885.88 36.0971L884.253 37.2124L883.7 36.7537L882.43 39.3301L881.037 38.849L881.36 39.6951L880.563 40.5045L878.989 40.7864L879.161 42.3351L879.96 43.1538L878.859 46.0446L886.551 47.2254L887.684 47.8555L887.687 50.4114L890.415 50.7272L891.595 52.1586L890.36 52.9586L888.469 52.8398L886.415 58.1626L887.204 60.3227L884.87 60.2584L875.247 53.9607L865.952 52.4267L865.477 50.6811L865.858 48.9478L867.256 43.8174L868.54 41.7477L867.515 40.7606L864.911 40.0162L864.953 39.5028L862.803 39.3493L860.683 35.4893L861.761 31.6613L863.519 30.5679L864.578 28.4606L869.548 28.0664L870.142 27.3115L870.048 25.5895L866.244 22.8819L866.821 22.1348L865.734 20.9298L861.593 19.5105L857.656 21.5644L855.677 23.901L853.67 22.7005L852.071 17.1544L853.645 15.8307L851.953 14.1161L851.273 9.90091L849.776 10.2826L847.071 9.40674L845.427 7.56497L843.896 7.57218L844.8 5.4982L843.722 3.63128L841.455 4.52839L840.251 8.0406L840.16 9.62301L841.516 11.3981L840.989 15.5847L842.506 15.8861L840.125 18.0942L840.819 18.8029L839.853 20.0065L838.633 19.9906L835.853 22.7793L834.612 22.2334L833.782 20.1954L832.034 18.4875L833.26 14.1292L831.828 13.7357L830.675 11.0965L830.885 9.65711L832.365 8.84091L832.88 6.16215L831.555 5.62609L831.771 4.59121L829.528 2.97085L826.229 2.4654L823.73 4.41777L822.132 2.62834L818.274 4.01316L817.557 1.08199L816.239 0.556029ZM857.599 42.2632L858.649 43.0622L860.888 48.3581L860.757 50.8101L862.704 51.4431L862.78 53.3651L859.505 53.8544L854.154 51.2351L850.23 54.96L847.964 56.0003L845.768 55.5885L845.968 54.517L844.605 53.9118L844.268 53.0713L847.322 52.7312L847.218 52.2255L848.936 51.382L849.11 50.114L849.827 50.0129L848.943 46.9322L846.584 45.5846L846.16 43.0914L848.257 44.1604L849.145 43.3962L851.368 43.5206L850.929 44.3624L852.928 45.2629L854.175 44.8641L853.974 43.8383L857.599 42.2632ZM940.627 826.69L943.903 827.408L943.517 830.446L943.779 832.218L944.464 832.631L943.299 836.894L941.072 836.765L940.992 836.256L937.961 835.451L940.627 826.69Z"/>
</mask>
<path d="M816.239 0.556029L815.972 0L814.654 1.38635L814.088 7.18652L818.137 8.53321L818.878 12.1393L814.367 13.8489L814.5 12.6353L811.253 10.7952L804.862 13.7882L802.993 13.7965L801.033 17.1892L797.944 14.6174L797.432 15.5073L795.443 15.7769L793.275 17.0904L791.292 15.9718L786.333 20.1137L784.264 24.8526L781.222 26.6848L780.93 29.7529L779.138 31.4949L779.924 35.1689L781.329 35.4778L780.543 36.8598L780.648 38.9719L777.648 38.6935L776.038 40.1991L776.5 41.0375L774.877 40.9012L771.636 44.0286L769.778 44.8372L768.833 44.5322L764.935 50.0378L765.487 51.156L767.227 51.6814L769.978 56.4559L768.546 58.3063L766.147 58.8585L765.232 60.8447L767.299 64.4044L770.871 64.1631L773.478 66.3056L774.922 68.4594L777.578 70.054L780.248 69.6428L781.38 70.5645L784.092 68.5198L784.457 69.0717L783.391 72.5002L784.448 75.6373L786.445 77.0587L787.865 76.4413L785.675 75.2699L787.761 74.2261L786.311 72.5862L787.358 71.7579L788.598 72.1495L789.35 74.48L790.793 74.0386L791.472 75.1893L792.348 75.3873L792.959 75.398L792.638 73.1877L794.78 73.5216L794.583 73.0492L798.883 72.9388L801.898 74.1366L804.654 73.7308L805.537 71.9429L803.821 69.5336L804.103 68.6152L803.138 67.0666L805.173 65.8581L805.489 67.5647L807.731 68.7258L806.864 66.0184L807.205 64.9722L813.743 62.5962L814.626 62.723L814.95 64.8872L816.874 65.0669L818.985 66.5852L821.983 64.4385L823.869 64.1938L825.327 61.5067L828.026 61.768L828.487 65.394L834.486 69.9582L834.882 72.3651L833.254 75.9189L830.82 77.3746L828.156 77.6644L827.017 76.8642L827.261 75.7609L829.331 75.4896L830.32 74.3539L830.083 72.2984L828.617 70.8085L827.555 70.9163L826.581 73.4981L824.724 74.8497L825.055 80.8425L827.461 86.7474L827.523 88.3423L824.625 91.9192L823.692 91.6717L822.893 93.9139L822.144 93.6721L821.06 94.5584L820.517 96.2111L818.736 95.9016L818.109 96.4968L816.943 95.2766L815.539 95.7545L814.159 94.3319L815.469 91.7013L815.462 89.9945L818.002 89.0394L816.973 88.8047L816.382 86.6674L814.381 86.894L812.808 83.3804L808.571 83.0641L808.131 82.2044L806.81 82.548L806.89 80.4311L802.73 80.0929L801.211 78.9116L799.614 79.1497L799.679 81.5447L798.723 82.9934L799.451 83.8651L797.047 83.6681L797.329 86.5229L792.638 87.9202L791.121 87.6398L789.504 88.2668L788.227 87.5699L787.002 90.8659L785.45 90.5861L785.785 91.4747L784.772 92.0178L784.896 92.7129L783.366 93.4361L781.194 93.4126L781.302 95.6493L782.613 97.7854L782.395 99.7288L783.733 99.8959L784.372 101.6L788.799 101.167L791.194 99.9772L793.081 103.057L790.251 104.781L787.551 104.474L783.757 106.996L781.05 106.949L775.343 109.334L772.427 109.446L762.95 104.804L760.465 106.364L758.06 109.995L750.595 107.996L741.368 107.583L739.085 106.22L735.638 102.004L731.546 99.339L730.789 96.9276L731.539 92.1107L729.892 90.4354L725.769 89.1575L721.282 90.2446L719.945 87.8315L718.903 87.5313L715.033 88.8023L712.854 88.7111L710.56 91.5659L709.287 92.1767L707.17 86.493L705.124 85.2678L702.761 84.921L700.055 86.1165L696.446 91.95L693.258 93.5744L690.055 97.0957L688.61 97.3712L685.12 96.3505L681.704 98.9412L681.656 101.031L680.982 101.836L674.73 101.758L672.835 102.368L670.753 105.193L669.614 111.306L666.43 113.624L663.941 113.468L659.545 110.555L657.083 110.984L653.315 114.531L645.202 116.961L643.2 116.57L638.755 114.256L631.215 114.724L626.002 113.435L623.74 114.973L622.703 118.829L621.081 119.89L617.458 118.513L613.09 118.314L611.032 116.767L609.553 112.65L610.869 109.596L610.612 107.43L608.262 103.155L604.819 100.159L602.517 99.5229L597.336 99.5635L589.372 102.554L587.867 102.249L586.115 100.444L583.269 99.9046L581.747 100.701L579.64 108.422L576.488 110.923L574.71 113.775L570.575 115.71L567.779 116.056L563.068 117.812L561.136 119.471L550.942 120.842L543.915 124.838L539.465 125.003L534.834 123.497L532.665 119.362L529.183 118.089L526.3 113.714L524.185 112.042L524.866 110.81L528.664 112.617L533.647 110.139L535.669 109.951L536.215 110.898L537.736 110.889L537.057 110.129L538.294 108.281L539.668 107.486L540.423 110.043L541.59 107.421L539.721 106.285L538.84 102.306L536.096 101.148L535.994 100.228L539.713 96.262L541.746 95.5606L542.883 94.1104L541.484 94.9841L539.514 95.142L537.065 98.0925L534.616 98.109L527.85 95.8389L526.636 97.0913L527.091 98.3832L519.561 104.941L515.108 104.486L515.088 101.289L510.159 99.0378L508.814 103.137L508.789 105.554L503.113 104.581L500.116 106.939L500.878 108.333L500.242 110.308L496.982 111.909L493.754 114.646L490.878 115.858L487.58 119.198L485.774 119.606L485.263 119.005L482.087 121.598L481.732 123.392L483.063 126.903L485.704 126.638L488.391 124.042L489.967 125.337L490.71 124.877L492.099 127.015L490.961 129.918L489.672 131.314L489.276 133.342L488.823 132.652L488.305 133.062L487.799 131.944L483.057 133.02L481.68 130.146L482.058 132.398L484.816 134.875L485.562 137.062L485.608 138.584L485.08 138.714L485.802 141.122L482.7 142.714L483.11 143.958L480.406 145.026L479.725 146.723L478.371 147.926L473.6 148.665L470.594 144.736L468.726 144.986L462.035 140.635L461.46 141.058L457.61 148.672L460.288 147.506L461.142 148.381L464.73 149.511L466.227 151.654L466.78 150.954L468.518 151.84L468.545 153.052L466.789 154.494L465.403 157.007L460.487 158.132L459.776 159.126L460.102 160.675L458.11 162.108L458.745 162.471L457.527 164.44L452.108 167.564L452.059 169.012L449.206 169.155L446.603 170.654L441.188 169.521L436.985 169.717L433.875 168.714L432.05 166.458L429.336 166.158L427.193 167.57L420.617 167.579L417.574 169.973L415.786 169.16L414.216 169.317L410.403 172.857L405.799 174.041L403.171 175.875L402.93 173.069L400.82 172.168L400.355 171.233L400.775 170.006L399.077 167.59L395.791 167.046L390.719 169.3L387.316 169.04L386.293 167.417L381.01 165.627L379.322 165.615L381.862 158.56L382.1 155.416L381.6 154.254L385.775 144.984L389.563 143.675L388.932 142.371L380.226 144.419L376.846 144.307L373.142 140.992L369.635 138.968L366.139 138.019L361.304 141.994L357.403 142.351L355.589 141.843L349.536 145.129L348.667 143.232L345.136 141.867L342.532 141.992L340.065 140.481L337.694 140.904L337.603 140.138L334.79 139.179L333.943 137.832L332.873 137.752L326.273 139.902L321.789 142.796L320.834 142.246L321.914 143.338L322.608 145.714L321.918 150.503L322.498 151.966L323.965 152.859L323.563 155.003L326.305 154.64L326.556 157.033L325.495 157.973L325.385 159.521L326.603 159.726L326.836 160.548L324.867 162.594L323.09 163.35L320.213 162.782L316.872 163.744L315.622 168.031L314.818 168.872L312.9 169.771L312.083 169.111L307.506 169.992L307.895 177.976L306.922 182.337L301.361 182.793L301.072 182.088L299.056 183.019L300.467 183.65L299.755 186.381L297.824 186.862L299.135 190.491L296.516 193.011L293.384 193.382L293.609 194.202L289.793 197.389L290.206 199.852L288.47 204.225L288.448 206.583L290.844 206.259L293.274 204.788L293.558 203.822L294.804 204.253L295.781 203.415L302.437 205.403L305.259 203.922L308.28 204.272L311.188 203.23L311.28 203.65L314.957 203.084L315.501 203.561L316.961 202.756L318.216 203.153L321.245 201.557L325.023 201.581L328.467 199.539L329.955 197.379L330.25 198.037L331.017 197.364L331.833 197.496L332.445 198.534L336.799 198.838L337.037 201.702L339.626 201.284L341.753 202.57L342.653 207.049L341.737 208.788L343.472 208.935L345.643 210.421L344.834 212.401L342.689 213.783L342.713 214.501L343.947 214.818L340.412 218.401L336.727 217.579L334.321 218.551L329.275 219.294L329.058 221.205L330.303 221.394L331.08 224.374L329.588 226.749L329.077 229.346L328.517 229.95L327.314 229.691L324.986 232.317L318.838 232.063L318.701 233.529L317.934 234.342L316.302 233.724L314.351 234.304L310.812 234.04L307.729 236.439L311.163 244.047L310.571 245.791L311.034 247.838L309.474 251.193L309.707 252.742L312.305 256.191L308.389 258.544L307.672 261.433L303.64 262.733L302.358 265.709L298.028 267.479L297.144 269.067L288.887 275.474L286.812 279.805L286.755 282.381L284.694 282.365L283.673 284.593L276.505 288.673L277.564 290.775L281.922 291.407L279.266 295.463L276.294 296.616L275.96 298.392L272.535 299.97L268.587 304.761L266.202 305.011L265.567 307.121L257.235 310.267L256.172 311.358L252.655 311.801L248.704 314.426L247.073 316.511L245.105 316.678L245.392 319.131L247.037 322.028L246.362 324.354L245.426 325.15L242.434 325.812L240.523 324.691L239.535 325.763L237.151 326.29L234.911 328.673L233.293 329.132L234.794 330.349L234.068 331.738L234.389 332.728L233.475 333.071L232.8 334.583L230.38 335.115L229.787 336.14L232.561 339.464L235.191 340.043L235.927 341.825L238.429 343.16L236.035 344.584L231.36 349.448L228.021 349.384L225.324 350.355L219.694 353.963L217.953 356.229L213.809 365.08L211.691 367.192L206.817 370.139L204.469 370.561L201.187 369.734L199.051 370.068L192.824 374.322L181.615 378.378L175.867 379.505L171.466 381.9L168.69 378.164L163.013 383.675L155.45 394.113L153.255 396.229L148.938 398.671L149.936 401.864L156.821 411.313L158.912 416.04L157.479 433.736L152.209 442.161L151.069 446.119L151.482 449.816L148.423 451.385L149.594 456.31L156.973 462.072L154.867 466.668L155.047 468.668L150.735 472.084L150.567 473.696L151.026 473.863L148.197 476.563L142.267 478.957L139.783 479.63L139.002 479.239L137.227 480.335L135.103 482.681L136.235 484.641L134.015 488.082L129.7 488.415L128.607 489.094L129.762 489.076L129.886 491.369L127.622 492.451L126.282 491.838L124.282 494.051L123.777 495.567L120.369 497.714L115.333 499.366L106.571 504.892L101.864 506.526L100.94 507.966L97.846 510.207L98.2591 511.771L97.2601 513.08L86.4839 522.936L84.8632 525.777L82.1927 527.184L81.7002 528.454L80.27 529.015L78.5642 531.474L77.9932 531.754L77.5151 531.172L76.0948 531.97L76.4332 532.38L75.0963 534.815L69.8467 538.505L69.6808 540.477L65.4188 543.051L64.1301 543.1L61.7848 545.961L57.383 548.692L53.2974 552.183L51.8391 554.863L48.2845 558.292L62.713 572.404L60.189 575.092L61.7164 576.259L58.6593 580.361L56.8703 578.885L48.9504 588.596L44.0451 601.405L36.5144 608.59L36.7196 611.111L37.8016 612.146L37.0205 613.998L40.1365 616.746L40.7667 618.361L40.521 619.742L37.0692 623.666L36.8575 625.393L33.7229 630.819L44.273 634.151L46.788 638.51L47.7727 638.45L49.3299 639.684L49.068 638.273L55.8516 643.365L60.5298 648.431L62.1235 647.932L62.8295 648.339L63.546 647.46L64.1093 649.623L65.597 650.966L66.8569 653.615L64.2147 656.41L63.2718 658.226L63.0369 660.945L61.7364 662.189L61.0985 662.089L60.4471 664.208L56.8588 666.01L57.3338 666.459L56.6393 667.401L57.2688 668.426L56.3347 669.016L56.2892 670.662L55.6006 670.848L52.9028 674.812L53.1785 675.495L52.5449 676.525L51.2059 677.868L51.0079 680.006L51.5001 680.474L50.8766 682.291L51.8204 683.963L50.8113 685.415L51.1473 686.136L49.41 685.956L45.7597 690.386L46.6013 691.283L46.0332 693.229L49.2347 695.999L48.1055 696.896L49.8318 698.995L51.2854 699.582L50.6618 700.125L52.0526 702.513L51.5198 704.155L52.6531 705.044L51.5063 707.118L47.7707 710.809L47.1539 710.22L45.4662 711.817L41.2821 707.521L36.7464 709.068L36.5867 710.139L34.794 709.943L33.5632 708.122L31.2334 709.999L28.1795 714.65L24.2877 711.407L21.7397 713.82L18.909 714.383L18.5426 715.081L17.8226 714.807L17.9427 715.711L16.762 715.737L16.8201 716.519L15.8279 716.849L16.0209 718.055L14.2561 719.587L11.5714 718.472L10.7101 719.035L11.7609 720.766L11.5184 721.979L7.26916 721.059L5.45287 722.661L4.17102 725.874L5.47537 727.71L3.04049 729.089L2.44455 730.233L8.40757 733.059L8.71873 733.92L10.7446 734.403L12.1859 737.106L10.7795 739.028L11.193 739.371L10.0384 742.121L8.80994 740.807L8.13196 741.014L7.55862 744.157L2.6219 753.906L3.23446 757.023L0 759.53L0.294996 761.161L1.62542 760.234L2.90463 760.74L4.24023 759.674L5.33039 759.862L6.50049 759.168L8.13026 757.241L8.62208 754.711L9.71118 754.902L11.9326 753.995L14.784 755.261L18.4649 754.672L21.2419 755.893L22.6631 755.868L23.6637 756.339L23.5999 756.979L24.0867 756.651L24.8315 758.634L26.0509 756.229L27.0446 755.426L27.8568 756.081L28.649 755.068L28.9324 752.841L30.1012 750.926L37.177 752.059L42.4552 750.652L44.5427 754.335L51.3106 754.817L53.806 755.922L56.3964 755.346L58.0999 752.792L59.0334 753.823L60.2078 751.494L66.4317 748.288L68.1986 747.997L71.7572 745.124L72.7449 744.108L71.9525 740.029L72.2081 737.775L74.6833 736.034L75.5798 736.398L77.8724 732.609L80.0838 732.145L81.9708 729.472L83.1978 729.345L83.104 728.575L85.0442 727.767L86.8764 725.966L89.6921 726.836L90.3553 726.626L90.235 725.744L91.7296 726.616L93.1512 724.689L96.9604 722.725L100.296 721.843L105.827 717.478L110.701 708.949L110.432 706.184L109.268 705.599L110.536 703.398L108.135 704.078L105.932 703.473L105.591 701.901L106.425 700.201L105.883 699.606L102.322 703.513L102.882 704.003L100.777 705.104L100.836 705.646L97.1135 707.264L95.0412 705.458L95.5159 704.152L91.8231 700.692L89.6431 695.863L87.9912 693.733L88.1219 691.661L88.7133 691.683L89.2971 690.343L91.5226 689.694L92.7973 687.9L91.4259 686.165L91.9193 685.181L91.3276 685.14L91.654 684.06L90.9244 683.554L91.565 682.702L82.3583 678.176L92.7977 656.181L118.485 636.562L146.734 631.083L175.937 612.703L226.777 613.625L270.26 625.94L264.28 643.279L264.291 644.662L265.682 645.967L265.374 648.028L263.312 649.894L261.389 652.934L257.652 653.412L254.758 655.908L254.625 659.196L254.959 660.782L257.144 663.339L258.842 666.87L258.778 668.696L262.551 668.606L263.364 670.385L262.872 671.477L263.794 674.479L265.876 674.159L268.583 676.37L269.866 676.507L273.136 680.784L272.457 682.426L273.037 683.481L274.541 683.652L276.061 685.785L277.396 686.147L278.475 688.149L280.657 686.95L281.729 687.505L283.963 692.535L282.078 695.398L282.479 698.864L280.688 702.006L280.988 703.86L279.916 705.248L276.11 707.025L275.284 710.388L273.253 713.292L270.303 714.233L270.422 718.4L266.764 722.607L265.945 725.291L264.786 726.788L267.613 737.24L265.852 738.61L265.403 741.227L261.091 745.674L261.381 747.126L260.638 749.716L261.993 752.628L262.597 756.664L263.333 758.015L265.936 757.643L268.4 760.93L269.509 760.099L275.608 759.261L276.804 759.701L277.535 761.344L279.842 762.144L285.392 762.8L286.682 762.431L289.428 763.824L292.015 762.607L294.896 763.371L292.77 768.023L293.399 770.499L290.366 775.662L289.362 776.384L292.383 780.932L291.212 783.664L292.354 786.092L291.085 786.314L288.758 788.112L286.084 796.328L287.229 796.973L288.178 798.611L292.19 800.16L292.344 798.786L293.291 797.711L297.926 796.508L298.3 795.126L302.597 789.942L305.534 789.603L306.574 790.378L305.865 794.147L308.639 796.573L310.579 796.128L311.948 800.622L314.561 805.717L315.698 805.392L317.101 807.939L320.319 810.638L321.463 817.421L326.335 819.993L327.833 818.94L329.447 820.705L329.968 825.28L332.37 826.799L333.533 829L332.863 830.213L329.324 831.638L328.806 833.541L331.598 837.441L337.849 839.956L338.2 844.197L337.315 847.465L339.479 851.373L339.816 854.327L342.739 857.752L345.074 858.755L346.296 860.619L346.21 864.787L348.499 866.645L350.084 867.006L350.028 869.22L351.172 871.558L355.965 875.76L354.919 877.482L356.26 879.243L356.587 881.831L357.748 883.276L360.143 883.771L363.156 883.202L364.58 881.455L367.476 879.577L368.386 877.206L374.117 874.224L376.22 874.492L377.43 875.331L377.45 876.775L376.632 877.679L380.921 881.633L382.062 881.287L383.765 882.931L385.694 883.547L387.533 882.831L388.883 881.553L387.893 878.271L388.666 875.919L389.726 875.533L390.524 873.812L391.713 873.63L393.534 872.131L393.747 869.898L396.694 869.467L397.473 868.449L401.073 869.374L404.088 867.934L405.215 870.032L406.383 870.19L410.957 864.837L412.648 864.49L415.268 857.72L418.129 854.935L420.436 857.05L424.959 857.335L425.518 859.546L427.334 860.196L429.465 860.057L433.707 857.917L435.654 859.571L437.505 860L437.503 861.56L438.989 863.325L440.506 862.948L442.999 864.708L443.521 864.48L445.603 866.43L446.836 866.116L450.198 862.665L450.426 860.995L451.653 859.606L452.828 860.705L454.49 860.908L457.645 859.308L458.069 858.167L459.583 857.821L461.863 855.641L464.966 850.503L468.726 850.133L469.45 848.726L472.833 849.509L474.448 848.584L473.403 843.436L475.367 841.136L478.421 839.532L480.294 839.587L482.089 836.538L484.696 838.555L487.985 836.414L488.447 837.493L491.083 839.223L493.421 839.056L494.349 839.924L495.687 839.01L496.894 836.258L495.3 830.308L496.618 826.864L498.004 825.6L501.71 825.993L503.733 825.076L506.898 825.846L508.044 829.532L507.865 831.119L510.03 832.873L516.814 833.399L519.698 832.025L525.932 833.051L529.058 831.274L530.358 831.162L531.386 830.128L533.659 830.538L534.907 831.372L535.622 833.152L537.651 835.332L538.047 838.161L538.888 838.993L541.801 840.126L544.451 840.127L547.905 843.028L547.106 849.01L548.341 849.91L548.778 852.031L549.921 852.255L551.216 854.042L555.781 853.96L556.337 851.999L559.135 849.018L559.735 846.24L566.457 848.003L568.735 850.745L573.187 853.517L574.177 855.76L575.906 857.062L577.74 856.137L579.15 854.379L582.856 852.606L585.88 853.511L587.527 854.978L594.331 855.366L596.073 857.232L596.779 855.953L598.883 855.549L600.126 852.499L597.426 848.186L598.04 843.36L600.151 842.596L600.702 840.225L599.468 838.508L600.372 838.028L600.289 836.997L601.613 835.817L601.519 834.1L600.288 832.518L600.243 831.353L605.373 829.189L606.133 827.016L608.536 824.455L610.006 820.895L613.225 821.368L615.909 820.793L617.489 821.33L622.755 820.592L625.205 821.287L631.383 819.755L635.124 821.351L636.639 819.565L638.871 813.974L642.41 814.083L642.671 812.319L641.893 810.964L643.999 808.312L642.247 805.364L645.421 801.85L649.595 799.548L645.99 790.966L646.206 788.899L645.299 788.074L645.571 785.653L647.622 782.837L647.774 778.904L649.123 776.344L649.392 773.813L651.983 774.226L653.879 773.161L655.498 773.605L660.155 771.475L664.084 771.722L668.878 770.382L669.729 769.212L672.342 768.922L672.841 767.394L674.083 766.289L674.586 760.441L677.638 758.208L683.637 757.505L685.39 755.757L687.059 752.608L686.388 752.224L686.363 749.739L685.309 748.391L685.352 745.868L685.729 744.62L687.17 743.382L688.07 740.63L690.164 739.338L690.234 736.93L686.419 732.908L685.824 727.598L683.367 723.622L681.915 717.027L678.304 716.063L677.353 715.453L676.168 712.549L674.558 712.562L673.368 710.232L672.943 706.443L670.276 706.46L670.192 705.126L665.941 704.514L664.339 703.256L663.652 701.402L665.415 700.73L665.375 698.689L669.926 695.479L671.475 692.784L674.007 692.106L675.491 689.899L676.286 687.244L677.63 686.045L678.784 685.939L681.505 682.761L684.453 682.865L688.957 685.427L694.416 684.744L699.271 682.001L700.618 682.541L704.761 679.357L704.52 677.857L705.671 676.207L705.586 674.651L708.84 671.593L708.198 671.473L708.356 670.418L707.76 669.855L708.825 668.67L708.504 667.951L712.074 665.27L713.946 665.62L716.641 665.092L717.547 662.516L720.652 662.731L719.728 661.51L721.588 660.068L721.324 657.682L719.983 656.157L720.929 654.549L723.835 653.263L727.336 654.727L729.058 652.231L730.73 651.627L732.25 649.994L736.276 648.638L736.915 645.52L738.101 644.533L736.668 642.857L737.648 640.965L737.161 638.715L735.268 636.422L734.309 637.328L733.354 637.135L728.789 634.571L731.918 631.79L731.902 630.344L734.586 626.531L736.92 627.537L740.193 626.593L748.635 619.375L749.665 616.964L753.155 614.717L755.767 614.172L756.925 615.224L760.12 614.332L761.284 614.874L762.22 613.522L764.181 613.439L766.113 611.629L768.826 611.617L774.062 609.345L775.52 609.11L775.77 609.873L777.766 609.373L779.107 610.221L780.087 611.888L779.977 613.163L782.848 615.268L782.974 617.792L784.084 618.142L783.47 620.482L781.456 622.494L782.464 625.377L781.249 627.742L781.861 629.417L783.172 630.127L784.824 632.924L783.181 636.04L785.717 640.093L782.488 644.284L784.261 647.284L784.355 652.603L785.424 655.216L783.686 657.128L782.714 659.428L783.644 662.157L783.254 666.879L783.9 668.262L782.357 670.688L780.87 671.213L780.304 673.926L777.142 674.727L776.42 676.477L776.539 678.968L775.704 679.913L776.146 681.695L773.799 682.56L772.149 684.331L774.103 687.269L774.825 690.057L779.031 695.197L780.94 699.986L778.632 701.055L778.444 702.585L776.69 704.338L777.393 706.728L783.509 708.688L784.275 712.809L785.425 714.23L792.342 715.689L799.45 719.742L801.496 718.975L804.856 720.592L806.093 726.943L807.365 729.868L811.463 732.487L811.604 735.156L814.619 736.152L816.541 739.344L817.727 745.049L819.156 746.25L821.057 745.702L821.935 746.256L822.571 747.468L822.247 748.557L826.952 749.118L827.126 749.902L826.013 750.04L825.955 751.715L823.791 753.354L823.688 754.769L824.656 754.902L828.991 759.292L829.657 764.377L840.822 763.548L843.549 766.976L843.986 768.442L847.911 770.189L850.795 769.488L851.529 771.711L852.906 773.257L856.127 773.279L861.568 775.447L864.778 769.566L870.425 764.082L875.946 773.481L878.516 773.853L883.136 776.833L888.367 776.594L890.322 773.614L893.212 775.409L898.984 781.963L901.69 783.29L903.278 785.181L904.714 785.232L905.488 791.6L902.238 797.527L899.223 796.231L897.334 798.421L899.514 799.663L898.654 801.127L897.817 800.654L896.916 804.883L894.582 807.957L890.283 809.57L886.277 815.836L884.026 824.457L885.57 824.679L886.069 823.182L887.115 823.102L891.628 824.122L892.756 823.598L894.727 825.212L898.22 824.938L899.181 826.266L900.691 826.658L900.963 827.818L901.773 827.904L902.002 829.654L903.94 831.8L907.395 834.864L908.657 835.16L909.771 837.353L912.867 839.155L917.692 838.095L918.626 840.011L919.235 843.86L917.642 847.88L917.585 850.692L921.999 856.761L924.136 856.756L927.21 862.268L927.463 864.435L926.401 866.74L927.219 868.347L928.207 868.58L929.53 871.251L930.224 878.266L931.24 879.638L932.812 878.262L933.825 879.786L929.837 882.513L924.117 891.002L923.468 896.342L926.07 894.642L928.743 895.014L929.974 892.46L931.884 891.435L934.919 890.455L936.278 890.961L937.242 890.479L937.223 891.289L939.046 892.451L938.872 893.656L941.535 895.477L942.854 895.166L943.468 893.537L945.182 893.943L946.747 892.682L948.101 893.838L947.753 894.131L950.126 894.303L948.958 900.158L950.422 899.753L952.237 900.965L956.326 902L957.82 900.23L960.719 900.693L961.676 899.708L960.574 898.95L962.737 894.066L962.066 891.551L962.985 891.092L963.603 889.07L964.597 889.025L965.093 887.664L966.772 886.478L965.979 886.038L967.101 885.472L966.267 881.766L967.002 879.673L967.685 879.327L968.026 876.808L968.938 876.052L971.649 875.975L973.224 873.097L975.227 871.59L975.733 869.963L975.041 869.13L975.262 868.435L976.415 868.54L977.511 866.652L978.652 866.229L978.228 865.135L978.713 864.526L978.039 863.823L974.943 865.14L974.832 859.649L973.602 859.006L972.093 860.004L972.213 858.972L969.361 857.353L969.623 855.334L966.243 855.569L966.351 854.817L964.254 852.36L960.233 852.812L959.195 851.818L956.958 851.967L957.93 847.99L957.087 846.831L955.149 846.012L954.722 844.982L956.261 842.614L955.273 837.385L949.045 834.665L947.473 832.947L947.311 831.818L947.942 832.545L949.606 831.817L949.441 828.349L953.206 828.434L954.395 827.132L954.46 824.988L955.042 824.602L956.559 825.102L957.941 824.246L958.062 822.79L959.802 822.396L958.568 819.162L957.953 811.869L953.745 807.344L953.283 806.004L953.887 802.61L956.187 799.977L956.286 796.97L957.993 795.629L959.896 795.482L963.209 792.797L964.896 792.784L966.602 791.247L969.784 792.019L975.007 790.449L975.612 785.106L977.212 783.826L978.905 780.076L973.56 765.989L979.018 762.602L982.079 762.089L983.62 759.707L985.963 758.465L988.865 758.419L990.548 753.878L992.921 750.034L994.886 749.29L997.622 746.771L999.797 746.043L1001.27 742.144L1004 741.631L1007.4 742.857L1008.21 742.383L1009.49 740.229L1011.71 738.302L1011.75 736.148L1012.76 734.775L1011.97 733.8L1011.77 731.766L1012.68 730.621L1014.07 725.066L1015.52 724.157L1017.85 723.991L1019.29 722.337L1019.63 719.42L1020.55 718.019L1019.94 715.688L1024.25 713.772L1027.71 714.299L1028.51 713.574L1028.92 708.685L1028.44 707.428L1029.44 705.76L1028.69 703.555L1029.98 700.79L1029.15 698.737L1031.19 697.44L1031.91 695.817L1031.76 693.311L1034.73 691.64L1035.82 688.424L1039.9 684.899L1038.87 679.321L1039.96 677.022L1043.09 675.516L1043.16 673.024L1044.42 671.081L1042.73 669.486L1042.16 667.157L1044.58 663.803L1043.4 661.309L1043.92 660.057L1043.47 658.373L1039.18 657.258L1037.99 653.394L1037.15 652.852L1037.48 651.021L1036.85 650.147L1037.66 649.589L1037.8 647.67L1038.51 647.44L1039.74 645.005L1037.87 642.988L1037.08 640.56L1039.01 637.531L1038.03 636.71L1039.17 635.999L1038.46 631.828L1037.44 631.448L1036.93 629.401L1034.87 629.638L1033.26 628.956L1032.64 627.235L1028.44 623.187L1028.07 617.041L1029.72 615.87L1034.09 614.965L1037.81 610.286L1036.7 609.684L1036.33 608.333L1037.56 602.355L1036.57 600.321L1037.98 598.594L1038.02 596.738L1039.44 594.283L1041.67 594.188L1046.21 592.494L1048.1 591.059L1056.21 590.211L1056.83 591.207L1060.41 590.455L1061.81 590.997L1062.87 589.574L1064.52 588.712L1065.97 590.603L1067.54 591.144L1067.5 593.218L1066.4 593.982L1066.02 595.607L1068.48 599.881L1071.25 600.913L1072.67 605.126L1074 605.361L1075.14 606.659L1079.5 607.919L1083.4 603.749L1083.39 601.05L1084.07 599.396L1083.58 598.03L1086.54 593.879L1093.07 590.519L1094.15 589.146L1095.72 588.91L1095.96 589.403L1094.94 590.444L1095.45 593.823L1094.93 599.798L1091.2 600.01L1091.39 602.003L1095.5 601.769L1096.35 606.752L1096.08 608.049L1094.35 609.658L1094.82 619.093L1093.69 621.698L1093.99 622.966L1092.87 628.83L1093.31 630.873L1095.14 632.903L1096.73 638.992L1096.63 641.942L1097.42 643.397L1096.16 645.616L1094.97 645.76L1095.6 647.217L1094.94 649.127L1099.56 651.564L1100.68 651.328L1101.78 653.117L1105.98 654.413L1107.25 658.154L1109.78 660.27L1110.69 666.975L1111.41 667.46L1111.55 668.906L1112.32 668.787L1112.88 671.282L1117.48 677.811L1122.59 682.502L1124.35 680.732L1125.89 680.768L1126.58 682.396L1129.95 683.923L1131.52 685.625L1133.17 686.122L1135.18 685.791L1136.04 686.482L1138.07 685.473L1141.58 686.018L1144.18 689.287L1146.24 688.95L1149.27 689.851L1151.55 689.497L1153.9 688.225L1154.05 687.153L1157.74 685.078L1159.88 685.361L1160.36 683.593L1162.38 682.145L1163.72 683.64L1163.82 684.909L1165.64 686.314L1167.56 686.371L1170.21 687.718L1172.62 687.228L1174.11 686.768L1175.25 680.717L1177.21 679.092L1177.7 677.44L1177.67 674.644L1175.23 673.777L1175 672.905L1175.38 671.523L1178.17 668.749L1176.75 665.095L1181.11 660.488L1181.85 660.944L1183.17 660.088L1184.38 661.921L1187.57 663.387L1189.93 666.603L1193.83 667.735L1196.05 665.071L1201.52 663.673L1203.75 661.599L1205.57 660.822L1206.54 661.05L1209.77 658.179L1211.02 655.931L1212.54 655.917L1213.37 655.236L1215.1 655.58L1216.17 654.388L1218.36 655.13L1218.67 654.526L1219.54 654.834L1220.05 654.317L1220.39 654.831L1221.27 654.267L1222.12 655.302L1225.99 652.586L1226.95 650.296L1231.59 648.787L1234.18 646.911L1235.09 647.503L1237.33 651.69L1238.15 651.142L1239.22 651.551L1239.92 653.66L1241.77 652.746L1241.42 651.124L1242.82 649.671L1248.55 647.62L1250.16 647.789L1250.52 648.091L1249.46 650.201L1252.21 654.666L1258.64 660.159L1261.36 659.8L1262.16 660.386L1261.6 662.42L1262.03 664.428L1258.75 668.118L1258.37 670.602L1257.03 673.081L1261.63 677.27L1263.31 677.585L1263.21 679.103L1262.12 680.247L1263.54 681.857L1263.53 682.855L1262.07 684.762L1260.71 685.258L1262.02 690.393L1266.07 692.318L1273.05 693.968L1276.91 697.122L1280.64 699.043L1281.41 702.496L1280.82 703.065L1281.65 703.619L1282.24 707.007L1281.13 707.664L1281.12 708.912L1279.97 710.181L1280.07 712.642L1276.97 715.41L1281.6 717.56L1283 719.725L1285.42 721.104L1288.62 717.343L1290.93 716.277L1295.62 715.93L1297.39 717.222L1300.45 717.382L1301.8 718.098L1303.47 717.279L1304.62 717.604L1308.88 715.063L1310.42 710.913L1317.94 704.129L1318.43 702.469L1317.02 698.692L1314.32 696.497L1314.35 695.013L1313.68 694.051L1314.05 691.573L1311.55 690.193L1312.22 688.419L1311.48 686.831L1308.78 685.582L1306.69 683.757L1306.66 681.46L1299.72 677.18L1298.59 673.006L1295.9 668.325L1296.39 664.449L1297.41 662.698L1297.17 659.849L1298.63 659.757L1300.44 657.65L1303.62 655.972L1302.65 651.921L1303.42 649.946L1303.08 648.485L1307.82 644.488L1309.39 644.171L1311.95 645.083L1313.88 643.938L1314.52 642.467L1313.93 636.328L1315.37 634.805L1313.62 631.273L1312.4 631.045L1309.95 632.436L1309.42 631.8L1309.27 627.742L1308.36 627.148L1307.96 625.411L1304.81 625.062L1303.62 623.857L1300.53 625.002L1299.91 626.449L1297 625.428L1296.59 626.606L1295.3 627.048L1294.76 628.573L1291.63 627.984L1288.33 628.691L1288.34 626.644L1287.39 625.472L1283.4 626.523L1282.5 625.814L1281.41 623.736L1281.49 620.91L1280.87 619.726L1279.72 620.256L1276.38 618.822L1275.52 616.956L1276.56 616.044L1276.36 614.578L1277.03 613.288L1277.95 612.934L1277.84 612.191L1279.69 610.873L1280.3 608.945L1279.38 607.543L1279.37 605.523L1276.83 602.884L1276.67 601.979L1278.44 598.453L1277.43 597.328L1277.29 596.016L1278.62 593.114L1277.38 591.997L1276.49 588.378L1277.92 588.153L1279.39 586.879L1280.16 582.66L1279.04 579.805L1280.01 578.571L1277.54 576.784L1277 574.593L1277.9 572.972L1282.47 572.22L1283.01 570.969L1284.75 569.737L1285.69 566.18L1289.01 564.159L1289.97 562.516L1288.2 560.616L1287.87 558.889L1293.18 557.879L1294.74 555.445L1294.89 552.511L1293.6 550.568L1293.79 548.624L1294.93 547.155L1294.17 544.958L1295.26 542.75L1296.61 542.77L1298.67 544.382L1303.16 545.303L1305.88 544.172L1306.2 542.748L1308.15 542.761L1310.57 541.009L1314.03 540.499L1320.48 536.754L1323.51 535.863L1323.7 537.131L1327.76 538.205L1330.55 539.939L1333.3 534.415L1338.04 531.595L1338.63 535.359L1339.76 537.57L1344.22 542.986L1340.88 547.314L1338.84 551.422L1340.16 558.941L1342.68 560.646L1345.7 557.971L1347.42 557.724L1349.73 560.038L1353.07 561.03L1353.72 563.638L1355.75 566.25L1355.91 568.047L1355.26 569.389L1355.78 570.285L1359.55 570.533L1360.57 571.774L1362.8 571.078L1364.96 569.488L1366.55 570.533L1368.93 573.569L1372.69 570.534L1373.21 567.609L1376.96 567.777L1380.62 569.083L1381.78 570.283L1383.33 570.253L1387.32 573.029L1391.06 570.602L1393.94 569.679L1398.74 574.207L1399.7 575.987L1404.74 579.027L1406.54 576.368L1406.71 574.207L1410.57 573.582L1410.45 571.005L1412.58 566.913L1411.38 564.512L1411.57 562.716L1413.4 559.037L1414.73 557.794L1414.29 556.256L1415.66 552.347L1414.41 551.17L1415.53 548.353L1414.62 545.313L1416.71 542.597L1417 540.643L1415.96 540.753L1414.56 539.721L1407.79 532.638L1402.63 528.913L1401.81 529.771L1394.55 530.255L1391.09 531.729L1388.96 530.934L1388.2 530.131L1388.79 529.168L1388.37 526.878L1387.15 525.183L1387.06 523.627L1385.74 522.601L1385.42 520.882L1385.98 519.553L1385.4 516.75L1385.9 515.171L1383.67 510.416L1382.56 509.412L1383.11 508.063L1384.38 508.169L1386.2 507.147L1389.28 499.807L1391.37 499.818L1393.25 498.212L1393.03 496.758L1393.88 495.722L1394.1 493.629L1392.76 492.979L1391.17 490.758L1391.06 489.519L1388.29 487.486L1388.5 486.963L1391.87 484.88L1392.28 483.816L1399.34 478.43L1401.27 478.717L1401.57 477.886L1401.99 474.035L1400.89 468.762L1398.99 466.847L1398.77 465.176L1395.34 462.312L1396.56 461.785L1396.59 459.596L1397.47 458.444L1400.42 458.054L1403.1 456.634L1406.26 449.712L1405.67 447.104L1407.12 445.864L1405.92 443.304L1407.01 441.243L1407.94 441.539L1409.02 440.735L1409 439.148L1408.19 438.316L1409.72 435.38L1410.68 434.915L1409.49 428.84L1410.5 423.924L1409.87 420.234L1408.45 418.795L1411.7 414.258L1411.73 411.155L1412.52 410.106L1412.78 406.87L1415.17 404.665L1414.88 403.23L1415.83 399.76L1414.89 397.42L1416.15 394.547L1412.04 393.076L1409.74 390.328L1406.02 388.625L1405.57 387.707L1403.6 387.963L1400.6 387.139L1399.95 386.341L1397.48 386.301L1396.48 385.695L1395.12 384.128L1395.41 381.953L1396.7 379.419L1396.55 377.374L1394.64 375.424L1392.15 374.219L1388.92 370.499L1387.71 367.651L1384.9 366.118L1383.44 366.367L1379.51 370.583L1374.18 369.816L1371.53 371.073L1370.99 374.028L1369.5 374.826L1369.72 376.154L1367.79 378.808L1366.22 382.546L1365.7 387.211L1364.67 388.024L1359.93 388.921L1359.37 390.613L1359.69 391.983L1358.92 393.407L1362.37 397.643L1362.02 400.26L1357.25 400.497L1356.03 402.629L1354.2 401.129L1346.66 398.605L1338.45 397.454L1338.89 403.137L1337.34 404.554L1336.17 410.926L1333.8 413.51L1334.39 416.108L1336.65 418.611L1335.75 422.64L1336 424.854L1335.4 425.52L1335.97 426.944L1331.78 426.495L1326.96 427.705L1325.46 426.793L1323.79 426.876L1323.02 428.444L1320.61 430.246L1320.15 431.83L1316.95 432.667L1316.1 434.028L1314.11 433.879L1312.46 435.297L1311.58 434.182L1309.24 433.689L1306.84 435.515L1301.74 435.014L1300.76 435.515L1300.5 436.969L1296.23 438.471L1294.69 436.036L1292.02 433.681L1292.24 430.68L1290.6 429.255L1289.49 429.704L1286.7 428.916L1281.9 429.445L1279.29 428.009L1279.52 422.208L1276.55 420.533L1275.57 418.101L1273.34 417.109L1271.56 413.57L1269.5 412.223L1268.86 410.937L1265.14 412.213L1262.48 410.747L1260.2 410.578L1259.17 409.165L1257.81 408.861L1257.6 406.268L1256.38 404.472L1252.85 406.131L1251.77 406.052L1250.51 404.408L1246.46 406.073L1243.68 405.638L1238.78 403.139L1235.9 399.863L1234.03 400.205L1232.06 399.282L1230.33 397.33L1227.18 396.707L1226.03 395.802L1224.6 395.978L1226.03 393.493L1224.74 393.223L1224.8 390.089L1224.21 388.835L1224.93 388.284L1225.41 385.809L1222.91 383.026L1224.43 381.083L1224.46 378.293L1227.23 375.033L1226.77 373.936L1227.31 372.94L1229.65 370.723L1228.78 369.001L1228.55 366.025L1223.7 363.477L1222.9 361.98L1223.04 360.437L1225.92 358.549L1224.63 356.735L1221.8 356.691L1219.48 355.836L1218.61 357.834L1217.29 358.916L1213.63 359.503L1212.73 360.486L1213.23 360.62L1212.1 360.675L1211.29 359.775L1210.42 359.865L1208.17 357.355L1203.18 355.677L1201.25 353.173L1198.28 351.995L1196.1 348.914L1191.18 348.676L1189.28 349.419L1184.6 349.622L1183.71 347.743L1182.65 347.016L1175.27 346.699L1171.77 344.582L1171.35 343.538L1172.26 342.943L1171.95 341.971L1168.82 342.615L1165.89 341.329L1163.99 339.689L1163.91 338.215L1156.53 339.989L1152.42 339.267L1151.25 341.92L1148.55 343.129L1143.71 342.054L1139.43 338.362L1138.27 339.632L1135.74 340.454L1132.77 342.472L1129.88 342.445L1125.51 344.409L1124.13 343.56L1123.23 339.69L1119.52 336.833L1112.27 339.125L1110.87 340.607L1107.1 340.467L1106.96 341.814L1104.39 340.864L1102.65 344.109L1101.45 342.546L1101.57 340.924L1099.88 341.611L1099.54 342.903L1098.29 338.478L1098.47 336.887L1104.69 332.892L1111.33 327.549L1113.14 322.6L1112.99 318.545L1110.8 306.53L1109.35 301.833L1107.02 298.485L1104.39 292.503L1102.68 284.133L1103.9 277.313L1106.98 270.612L1107.62 266.582L1113.49 255.802L1116.51 247.406L1116.77 243.546L1121.52 239.465L1124.73 231.155L1132.59 225.351L1134.64 222.522L1138.17 209.962L1140.14 206.908L1145.98 200.435L1146.55 200.917L1149.39 199.88L1154.13 199.802L1157.21 198.629L1160.4 195.156L1161.41 192.401L1160.97 188.437L1157.11 186.206L1155.32 183.1L1154.46 182.997L1154.05 175.542L1152.2 169.628L1152.9 167.117L1156.45 163.438L1156.76 161.438L1152.61 159.873L1145.33 159.056L1141.2 153.136L1140.41 153.458L1139.29 156.961L1136.8 156.378L1132.68 147.451L1127.61 143.197L1126.47 141.456L1125.44 120.793L1105.73 116.46L1074.21 85.2509L1031.06 67.8582L1018.02 69.495L1009.36 68.4277L1005.88 69.9976L1005.73 69.188L1004.11 69.5562L1000.22 64.6611L998.011 63.8101L994.399 65.3841L987.769 63.3288L983.505 59.9641L980.338 58.4715L974.619 58.8354L958.215 55.1043L955.555 55.8006L947.811 60.3482L944.709 61.1513L943.055 63.2018L934.062 67.5001L932.643 68.9589L927.966 69.4636L920.23 72.4665L917.751 72.5585L914.535 70.0177L911.989 69.5616L912.231 67.0723L911.496 62.9702L909.643 60.0729L907.359 58.0709L904.231 57.6784L904.396 55.6776L906.04 54.0884L906.465 52.4782L905.536 51.6416L904.308 51.5686L904.534 50.2259L905.563 50.4877L906.579 49.7175L907.373 50.8418L908.186 49.8595L909.148 50.7862L908.203 52.5884L909.279 51.8866L911.365 51.8811L912.223 50.5742L910.206 48.3007L911.158 47.3L909.241 46.6666L903.537 47.6199L902.732 44.092L901.925 43.6385L898.929 42.5497L897.835 43.7675L896.411 44.1617L894.387 43.3569L896.637 41.051L894.225 41.1504L892.405 38.3771L889.938 38.0363L892.24 35.3602L891.105 35.0031L890.521 31.8008L887.363 33.4902L888.186 36.8577L885.88 36.0971L884.253 37.2124L883.7 36.7537L882.43 39.3301L881.037 38.849L881.36 39.6951L880.563 40.5045L878.989 40.7864L879.161 42.3351L879.96 43.1538L878.859 46.0446L886.551 47.2254L887.684 47.8555L887.687 50.4114L890.415 50.7272L891.595 52.1586L890.36 52.9586L888.469 52.8398L886.415 58.1626L887.204 60.3227L884.87 60.2584L875.247 53.9607L865.952 52.4267L865.477 50.6811L865.858 48.9478L867.256 43.8174L868.54 41.7477L867.515 40.7606L864.911 40.0162L864.953 39.5028L862.803 39.3493L860.683 35.4893L861.761 31.6613L863.519 30.5679L864.578 28.4606L869.548 28.0664L870.142 27.3115L870.048 25.5895L866.244 22.8819L866.821 22.1348L865.734 20.9298L861.593 19.5105L857.656 21.5644L855.677 23.901L853.67 22.7005L852.071 17.1544L853.645 15.8307L851.953 14.1161L851.273 9.90091L849.776 10.2826L847.071 9.40674L845.427 7.56497L843.896 7.57218L844.8 5.4982L843.722 3.63128L841.455 4.52839L840.251 8.0406L840.16 9.62301L841.516 11.3981L840.989 15.5847L842.506 15.8861L840.125 18.0942L840.819 18.8029L839.853 20.0065L838.633 19.9906L835.853 22.7793L834.612 22.2334L833.782 20.1954L832.034 18.4875L833.26 14.1292L831.828 13.7357L830.675 11.0965L830.885 9.65711L832.365 8.84091L832.88 6.16215L831.555 5.62609L831.771 4.59121L829.528 2.97085L826.229 2.4654L823.73 4.41777L822.132 2.62834L818.274 4.01316L817.557 1.08199L816.239 0.556029ZM857.599 42.2632L858.649 43.0622L860.888 48.3581L860.757 50.8101L862.704 51.4431L862.78 53.3651L859.505 53.8544L854.154 51.2351L850.23 54.96L847.964 56.0003L845.768 55.5885L845.968 54.517L844.605 53.9118L844.268 53.0713L847.322 52.7312L847.218 52.2255L848.936 51.382L849.11 50.114L849.827 50.0129L848.943 46.9322L846.584 45.5846L846.16 43.0914L848.257 44.1604L849.145 43.3962L851.368 43.5206L850.929 44.3624L852.928 45.2629L854.175 44.8641L853.974 43.8383L857.599 42.2632ZM940.627 826.69L943.903 827.408L943.517 830.446L943.779 832.218L944.464 832.631L943.299 836.894L941.072 836.765L940.992 836.256L937.961 835.451L940.627 826.69Z" stroke="#FFDBFB" stroke-width="16" mask="url(#path-1-inside-1_123_444)"/>
</svg>
